<?xml version="1.0" encoding="UTF-8" standalone="no"?>
<!DOCTYPE svg PUBLIC "-//W3C//DTD SVG 1.1//EN"
 "http://www.w3.org/Graphics/SVG/1.1/DTD/svg11.dtd">
<!-- Generated by graphviz version 10.0.1 (0)
 -->
<!-- Title: main Pages: 1 -->
<svg width="3835pt" height="1322pt"
 viewBox="0.00 0.00 3834.99 1322.38" xmlns="http://www.w3.org/2000/svg" xmlns:xlink="http://www.w3.org/1999/xlink">
<g id="graph0" class="graph" transform="scale(1 1) rotate(0) translate(4 1318.38)">
<title>main</title>
<polygon fill="white" stroke="none" points="-4,4 -4,-1318.38 3830.99,-1318.38 3830.99,4 -4,4"/>
<!-- Abu Dhabi -->
<g id="node1" class="node">
<title>Abu Dhabi</title>
<text text-anchor="middle" x="2485.17" y="-899.06" font-family="Times,serif" font-size="14.00">Abu Dhabi</text>
</g>
<!-- Jeddah -->
<g id="node11" class="node">
<title>Jeddah</title>
<text text-anchor="middle" x="2262.02" y="-858.18" font-family="Times,serif" font-size="14.00">Jeddah</text>
</g>
<!-- Abu Dhabi&#45;&gt;Jeddah -->
<g id="edge54" class="edge">
<title>Abu Dhabi&#45;&gt;Jeddah</title>
<path fill="none" stroke="blue" d="M2444.76,-897.46C2403.61,-889.92 2340.29,-878.32 2300.02,-870.95"/>
<polygon fill="blue" stroke="blue" points="2300.77,-867.52 2290.31,-869.17 2299.51,-874.41 2300.77,-867.52"/>
</g>
<!-- Lusail -->
<g id="node14" class="node">
<title>Lusail</title>
<text text-anchor="middle" x="2439.86" y="-913.74" font-family="Times,serif" font-size="14.00">Lusail</text>
</g>
<!-- Abu Dhabi&#45;&gt;Lusail -->
<g id="edge6" class="edge">
<title>Abu Dhabi&#45;&gt;Lusail</title>
<path fill="none" stroke="red" d="M2445.75,-912.2C2445.68,-912.24 2445.62,-912.28 2445.56,-912.32"/>
<polygon fill="red" stroke="red" points="2453.29,-903.38 2446.65,-911.64 2456.99,-909.32 2453.29,-903.38"/>
</g>
<!-- Austin -->
<g id="node2" class="node">
<title>Austin</title>
<text text-anchor="middle" x="293" y="-980.63" font-family="Times,serif" font-size="14.00">Austin</text>
</g>
<!-- Mexico City -->
<g id="node17" class="node">
<title>Mexico City</title>
<text text-anchor="middle" x="272.01" y="-826.07" font-family="Times,serif" font-size="14.00">Mexico City</text>
</g>
<!-- Austin&#45;&gt;Mexico City -->
<g id="edge31" class="edge">
<title>Austin&#45;&gt;Mexico City</title>
<path fill="none" stroke="red" d="M295.05,-978.98C296.29,-955.77 287.13,-884.35 279.18,-850.3"/>
<polygon fill="red" stroke="red" points="282.58,-849.47 276.61,-840.72 275.82,-851.28 282.58,-849.47"/>
</g>
<!-- Austin&#45;&gt;Mexico City -->
<g id="edge60" class="edge">
<title>Austin&#45;&gt;Mexico City</title>
<path fill="none" stroke="blue" d="M288.78,-978.98C281.35,-955.87 271.26,-884.96 269.98,-850.73"/>
<polygon fill="blue" stroke="blue" points="273.48,-850.75 269.97,-840.75 266.48,-850.76 273.48,-850.75"/>
</g>
<!-- Baku -->
<g id="node3" class="node">
<title>Baku</title>
<text text-anchor="middle" x="2416.64" y="-1128" font-family="Times,serif" font-size="14.00">Baku</text>
</g>
<!-- Sakhir -->
<g id="node24" class="node">
<title>Sakhir</title>
<text text-anchor="middle" x="2426.29" y="-921.53" font-family="Times,serif" font-size="14.00">Sakhir</text>
</g>
<!-- Baku&#45;&gt;Sakhir -->
<g id="edge51" class="edge">
<title>Baku&#45;&gt;Sakhir</title>
<path fill="none" stroke="blue" d="M2416.99,-1126.45C2418.34,-1097.41 2423.36,-990.13 2425.41,-946.24"/>
<polygon fill="blue" stroke="blue" points="2428.9,-946.47 2425.87,-936.32 2421.91,-946.14 2428.9,-946.47"/>
</g>
<!-- Sochi -->
<g id="node31" class="node">
<title>Sochi</title>
<text text-anchor="middle" x="2274.34" y="-1171.74" font-family="Times,serif" font-size="14.00">Sochi</text>
</g>
<!-- Baku&#45;&gt;Sochi -->
<g id="edge10" class="edge">
<title>Baku&#45;&gt;Sochi</title>
<path fill="none" stroke="red" d="M2398.71,-1134.58C2372.38,-1139.78 2323.42,-1154.63 2295.41,-1165.74"/>
<polygon fill="red" stroke="red" points="2294.38,-1162.38 2286.54,-1169.49 2297.11,-1168.82 2294.38,-1162.38"/>
</g>
<!-- Barcelona -->
<g id="node4" class="node">
<title>Barcelona</title>
<text text-anchor="middle" x="1731.45" y="-1145.28" font-family="Times,serif" font-size="14.00">Barcelona</text>
</g>
<!-- Magny&#45;Cours -->
<g id="node15" class="node">
<title>Magny&#45;Cours</title>
<text text-anchor="middle" x="1744.48" y="-1221.51" font-family="Times,serif" font-size="14.00">Magny&#45;Cours</text>
</g>
<!-- Barcelona&#45;&gt;Magny&#45;Cours -->
<g id="edge44" class="edge">
<title>Barcelona&#45;&gt;Magny&#45;Cours</title>
<path fill="none" stroke="blue" d="M1732.7,-1158.39C1734.67,-1169.91 1738.56,-1192.67 1741.33,-1208.88"/>
<polygon fill="blue" stroke="blue" points="1737.86,-1209.37 1743,-1218.64 1744.76,-1208.19 1737.86,-1209.37"/>
</g>
<!-- Portimão -->
<g id="node23" class="node">
<title>Portimão</title>
<text text-anchor="middle" x="1574.68" y="-1082.82" font-family="Times,serif" font-size="14.00">Portimão</text>
</g>
<!-- Barcelona&#45;&gt;Portimão -->
<g id="edge26" class="edge">
<title>Barcelona&#45;&gt;Portimão</title>
<path fill="none" stroke="red" d="M1712.85,-1143.67C1685.86,-1132.91 1635.59,-1112.89 1603.7,-1100.18"/>
<polygon fill="red" stroke="red" points="1605.24,-1097.03 1594.66,-1096.58 1602.65,-1103.54 1605.24,-1097.03"/>
</g>
<!-- Budapest -->
<g id="node5" class="node">
<title>Budapest</title>
<text text-anchor="middle" x="1976.12" y="-1231.88" font-family="Times,serif" font-size="14.00">Budapest</text>
</g>
<!-- Istanbul -->
<g id="node9" class="node">
<title>Istanbul</title>
<text text-anchor="middle" x="2122.45" y="-1136.48" font-family="Times,serif" font-size="14.00">Istanbul</text>
</g>
<!-- Budapest&#45;&gt;Istanbul -->
<g id="edge48" class="edge">
<title>Budapest&#45;&gt;Istanbul</title>
<path fill="none" stroke="blue" d="M1995.66,-1230.34C2025.64,-1214.36 2082.04,-1177.56 2108.37,-1156.79"/>
<polygon fill="blue" stroke="blue" points="2110.28,-1159.76 2115.71,-1150.66 2105.79,-1154.39 2110.28,-1159.76"/>
</g>
<!-- Spielberg -->
<g id="node33" class="node">
<title>Spielberg</title>
<text text-anchor="middle" x="1911.48" y="-1226.69" font-family="Times,serif" font-size="14.00">Spielberg</text>
</g>
<!-- Budapest&#45;&gt;Spielberg -->
<g id="edge13" class="edge">
<title>Budapest&#45;&gt;Spielberg</title>
<path fill="none" stroke="red" d="M1958.94,-1230.19C1958.8,-1230.16 1958.66,-1230.14 1958.52,-1230.12"/>
<polygon fill="red" stroke="red" points="1963.86,-1227.37 1953.45,-1229.36 1962.83,-1234.29 1963.86,-1227.37"/>
</g>
<!-- Estoril -->
<g id="node6" class="node">
<title>Estoril</title>
<text text-anchor="middle" x="1563.65" y="-1104.7" font-family="Times,serif" font-size="14.00">Estoril</text>
</g>
<!-- Montreal -->
<g id="node20" class="node">
<title>Montreal</title>
<text text-anchor="middle" x="640.16" y="-1201.97" font-family="Times,serif" font-size="14.00">Montreal</text>
</g>
<!-- Estoril&#45;&gt;Montreal -->
<g id="edge28" class="edge">
<title>Estoril&#45;&gt;Montreal</title>
<path fill="none" stroke="red" d="M1532.38,-1111.14C1395.82,-1120.2 851.26,-1177.38 687.18,-1199.6"/>
<polygon fill="red" stroke="red" points="686.96,-1196.1 677.53,-1200.93 687.92,-1203.03 686.96,-1196.1"/>
</g>
<!-- Estoril&#45;&gt;Montreal -->
<g id="edge57" class="edge">
<title>Estoril&#45;&gt;Montreal</title>
<path fill="none" stroke="blue" d="M1532.4,-1116.46C1395.89,-1136.15 851.3,-1193.68 687.19,-1206.01"/>
<polygon fill="blue" stroke="blue" points="687.28,-1202.49 677.56,-1206.71 687.78,-1209.47 687.28,-1202.49"/>
</g>
<!-- Hockenheim -->
<g id="node7" class="node">
<title>Hockenheim</title>
<text text-anchor="middle" x="1822.36" y="-1257.03" font-family="Times,serif" font-size="14.00">Hockenheim</text>
</g>
<!-- Monza -->
<g id="node21" class="node">
<title>Monza</title>
<text text-anchor="middle" x="1832.7" y="-1203.62" font-family="Times,serif" font-size="14.00">Monza</text>
</g>
<!-- Hockenheim&#45;&gt;Monza -->
<g id="edge38" class="edge">
<title>Hockenheim&#45;&gt;Monza</title>
<path fill="none" stroke="blue" d="M1828.94,-1255.45C1831.98,-1248.42 1834.53,-1237.58 1835.57,-1228.17"/>
<polygon fill="blue" stroke="blue" points="1839.06,-1228.36 1835.9,-1218.25 1832.07,-1228.13 1839.06,-1228.36"/>
</g>
<!-- Nürburg -->
<g id="node22" class="node">
<title>Nürburg</title>
<text text-anchor="middle" x="1798.9" y="-1271.49" font-family="Times,serif" font-size="14.00">Nürburg</text>
</g>
<!-- Hockenheim&#45;&gt;Nürburg -->
<g id="edge18" class="edge">
<title>Hockenheim&#45;&gt;Nürburg</title>
<path fill="none" stroke="red" d="M1800.22,-1270.29C1800.16,-1270.37 1800.11,-1270.44 1800.05,-1270.52"/>
<polygon fill="red" stroke="red" points="1803.68,-1259.33 1800.76,-1269.51 1809.4,-1263.37 1803.68,-1259.33"/>
</g>
<!-- Imola -->
<g id="node8" class="node">
<title>Imola</title>
<text text-anchor="middle" x="1867.59" y="-1185.19" font-family="Times,serif" font-size="14.00">Imola</text>
</g>
<!-- Scarperia e San Piero -->
<g id="node26" class="node">
<title>Scarperia e San Piero</title>
<text text-anchor="middle" x="1862.68" y="-1180.25" font-family="Times,serif" font-size="14.00">Scarperia e San Piero</text>
</g>
<!-- Imola&#45;&gt;Scarperia e San Piero -->
<g id="edge15" class="edge">
<title>Imola&#45;&gt;Scarperia e San Piero</title>
<path fill="none" stroke="red" d="M1869.67,-1183.55C1869.63,-1183.52 1869.58,-1183.49 1869.54,-1183.47"/>
<polygon fill="red" stroke="red" points="1881.14,-1186.04 1870.72,-1184.14 1877.68,-1192.12 1881.14,-1186.04"/>
</g>
<!-- Imola&#45;&gt;Scarperia e San Piero -->
<g id="edge40" class="edge">
<title>Imola&#45;&gt;Scarperia e San Piero</title>
<path fill="none" stroke="blue" d="M1862.39,-1186.35C1862.41,-1186.33 1862.43,-1186.3 1862.46,-1186.28"/>
<polygon fill="blue" stroke="blue" points="1856.99,-1196.89 1861.47,-1187.29 1851.98,-1192 1856.99,-1196.89"/>
</g>
<!-- Istanbul&#45;&gt;Budapest -->
<g id="edge12" class="edge">
<title>Istanbul&#45;&gt;Budapest</title>
<path fill="none" stroke="red" d="M2102.91,-1149.62C2072.93,-1165.59 2016.53,-1202.39 1990.2,-1223.17"/>
<polygon fill="red" stroke="red" points="1988.3,-1220.2 1982.87,-1229.3 1992.78,-1225.57 1988.3,-1220.2"/>
</g>
<!-- Istanbul&#45;&gt;Sochi -->
<g id="edge49" class="edge">
<title>Istanbul&#45;&gt;Sochi</title>
<path fill="none" stroke="blue" d="M2136.07,-1149.73C2159.44,-1158.07 2207.77,-1169.79 2240.64,-1175.52"/>
<polygon fill="blue" stroke="blue" points="2240.05,-1178.97 2250.48,-1177.1 2241.16,-1172.05 2240.05,-1178.97"/>
</g>
<!-- Jacarepaguá -->
<g id="node10" class="node">
<title>Jacarepaguá</title>
<text text-anchor="middle" x="1074.03" y="-215.83" font-family="Times,serif" font-size="14.00">Jacarepaguá</text>
</g>
<!-- Jeddah&#45;&gt;Baku -->
<g id="edge9" class="edge">
<title>Jeddah&#45;&gt;Baku</title>
<path fill="none" stroke="red" d="M2266.31,-871.48C2287.04,-907.64 2376.87,-1064.39 2406.86,-1116.72"/>
<polygon fill="red" stroke="red" points="2403.68,-1118.21 2411.69,-1125.15 2409.75,-1114.73 2403.68,-1118.21"/>
</g>
<!-- Jeddah&#45;&gt;Portimão -->
<g id="edge55" class="edge">
<title>Jeddah&#45;&gt;Portimão</title>
<path fill="none" stroke="blue" d="M2239.15,-871.46C2137.71,-904.61 1728.18,-1038.45 1607.99,-1077.74"/>
<polygon fill="blue" stroke="blue" points="1607.14,-1074.33 1598.72,-1080.76 1609.31,-1080.98 1607.14,-1074.33"/>
</g>
<!-- Las Vegas -->
<g id="node12" class="node">
<title>Las Vegas</title>
<text text-anchor="middle" x="40.5" y="-1066.75" font-family="Times,serif" font-size="14.00">Las Vegas</text>
</g>
<!-- Las Vegas&#45;&gt;Austin -->
<g id="edge30" class="edge">
<title>Las Vegas&#45;&gt;Austin</title>
<path fill="none" stroke="red" d="M62.47,-1065.06C107.07,-1049.85 208.42,-1015.28 260.62,-997.47"/>
<polygon fill="red" stroke="red" points="261.5,-1000.87 269.84,-994.33 259.24,-994.24 261.5,-1000.87"/>
</g>
<!-- Suzuka -->
<g id="node34" class="node">
<title>Suzuka</title>
<text text-anchor="middle" x="3665.01" y="-1048.44" font-family="Times,serif" font-size="14.00">Suzuka</text>
</g>
<!-- Las Vegas&#45;&gt;Suzuka -->
<g id="edge62" class="edge">
<title>Las Vegas&#45;&gt;Suzuka</title>
<path fill="none" stroke="blue" d="M80.89,-1072.35C452.21,-1070.47 3266.43,-1056.25 3627.02,-1054.43"/>
<polygon fill="blue" stroke="blue" points="3626.85,-1057.93 3636.84,-1054.38 3626.82,-1050.93 3626.85,-1057.93"/>
</g>
<!-- Le Castellet -->
<g id="node13" class="node">
<title>Le Castellet</title>
<text text-anchor="middle" x="1782.31" y="-1169.53" font-family="Times,serif" font-size="14.00">Le Castellet</text>
</g>
<!-- Le Castellet&#45;&gt;Barcelona -->
<g id="edge25" class="edge">
<title>Le Castellet&#45;&gt;Barcelona</title>
<path fill="none" stroke="red" d="M1777.7,-1167.88C1776.19,-1166.65 1774.4,-1165.36 1772.4,-1164.07"/>
<polygon fill="red" stroke="red" points="1774.38,-1161.17 1763.96,-1159.26 1770.92,-1167.25 1774.38,-1161.17"/>
</g>
<!-- Le Castellet&#45;&gt;Barcelona -->
<g id="edge43" class="edge">
<title>Le Castellet&#45;&gt;Barcelona</title>
<path fill="none" stroke="blue" d="M1751.02,-1167.84C1749.07,-1166.85 1747.17,-1165.82 1745.37,-1164.78"/>
<polygon fill="blue" stroke="blue" points="1747.41,-1161.93 1737.16,-1159.24 1743.49,-1167.73 1747.41,-1161.93"/>
</g>
<!-- Lusail&#45;&gt;Abu Dhabi -->
<g id="edge53" class="edge">
<title>Lusail&#45;&gt;Abu Dhabi</title>
<path fill="none" stroke="blue" d="M2466.71,-917.91C2467.6,-917.6 2468.48,-917.27 2469.35,-916.94"/>
<polygon fill="blue" stroke="blue" points="2470.47,-920.28 2477.99,-912.81 2467.45,-913.97 2470.47,-920.28"/>
</g>
<!-- Lusail&#45;&gt;Sakhir -->
<g id="edge7" class="edge">
<title>Lusail&#45;&gt;Sakhir</title>
<path fill="none" stroke="red" d="M2426.1,-926.96C2426.11,-926.99 2426.13,-927.02 2426.14,-927.05"/>
<polygon fill="red" stroke="red" points="2417.7,-918.61 2425.48,-925.81 2423.89,-915.33 2417.7,-918.61"/>
</g>
<!-- Monte Carlo -->
<g id="node19" class="node">
<title>Monte Carlo</title>
<text text-anchor="middle" x="1805.9" y="-1176.5" font-family="Times,serif" font-size="14.00">Monte Carlo</text>
</g>
<!-- Magny&#45;Cours&#45;&gt;Monte Carlo -->
<g id="edge23" class="edge">
<title>Magny&#45;Cours&#45;&gt;Monte Carlo</title>
<path fill="none" stroke="red" d="M1754.62,-1219.88C1763.39,-1213.45 1776.29,-1204 1786.96,-1196.18"/>
<polygon fill="red" stroke="red" points="1788.73,-1199.22 1794.72,-1190.48 1784.59,-1193.57 1788.73,-1199.22"/>
</g>
<!-- Silverstone -->
<g id="node29" class="node">
<title>Silverstone</title>
<text text-anchor="middle" x="1684.27" y="-1296.52" font-family="Times,serif" font-size="14.00">Silverstone</text>
</g>
<!-- Magny&#45;Cours&#45;&gt;Silverstone -->
<g id="edge45" class="edge">
<title>Magny&#45;Cours&#45;&gt;Silverstone</title>
<path fill="none" stroke="blue" d="M1732.33,-1234.71C1719.77,-1246.57 1701.08,-1269.6 1690.92,-1285.54"/>
<polygon fill="blue" stroke="blue" points="1688.06,-1283.48 1686.17,-1293.91 1694.15,-1286.94 1688.06,-1283.48"/>
</g>
<!-- Melbourne -->
<g id="node16" class="node">
<title>Melbourne</title>
<text text-anchor="middle" x="3786.49" y="-1.7" font-family="Times,serif" font-size="14.00">Melbourne</text>
</g>
<!-- Sao Paulo -->
<g id="node25" class="node">
<title>Sao Paulo</title>
<text text-anchor="middle" x="1026.47" y="-205.37" font-family="Times,serif" font-size="14.00">Sao Paulo</text>
</g>
<!-- Melbourne&#45;&gt;Sao Paulo -->
<g id="edge67" class="edge">
<title>Melbourne&#45;&gt;Sao Paulo</title>
<path fill="none" stroke="blue" d="M3746.14,-10.48C3435.53,-33.4 1427.29,-181.6 1078.17,-207.36"/>
<polygon fill="blue" stroke="blue" points="1078.15,-203.85 1068.43,-208.08 1078.66,-210.83 1078.15,-203.85"/>
</g>
<!-- Melbourne&#45;&gt;Suzuka -->
<g id="edge1" class="edge">
<title>Melbourne&#45;&gt;Suzuka</title>
<path fill="none" stroke="red" d="M3785.65,-14.74C3775.81,-99.53 3682.62,-902.49 3667.17,-1035.59"/>
<polygon fill="red" stroke="red" points="3663.71,-1035.03 3666.04,-1045.37 3670.67,-1035.84 3663.71,-1035.03"/>
</g>
<!-- Mexico City&#45;&gt;Las Vegas -->
<g id="edge61" class="edge">
<title>Mexico City&#45;&gt;Las Vegas</title>
<path fill="none" stroke="blue" d="M264.83,-839.34C232.49,-872.96 100.02,-1010.68 55.31,-1057.15"/>
<polygon fill="blue" stroke="blue" points="53.06,-1054.45 48.65,-1064.08 58.1,-1059.3 53.06,-1054.45"/>
</g>
<!-- Miami -->
<g id="node18" class="node">
<title>Miami</title>
<text text-anchor="middle" x="543.48" y="-920.48" font-family="Times,serif" font-size="14.00">Miami</text>
</g>
<!-- Mexico City&#45;&gt;Miami -->
<g id="edge32" class="edge">
<title>Mexico City&#45;&gt;Miami</title>
<path fill="none" stroke="red" d="M293.31,-839.28C340.79,-855.79 455.5,-895.68 511.56,-915.18"/>
<polygon fill="red" stroke="red" points="510.25,-918.43 520.85,-918.41 512.55,-911.82 510.25,-918.43"/>
</g>
<!-- Miami&#45;&gt;Austin -->
<g id="edge59" class="edge">
<title>Miami&#45;&gt;Austin</title>
<path fill="none" stroke="blue" d="M521.25,-931.62C478.31,-941.93 383.51,-964.69 330.59,-977.4"/>
<polygon fill="blue" stroke="blue" points="330.04,-973.93 321.13,-979.67 331.67,-980.74 330.04,-973.93"/>
</g>
<!-- Miami&#45;&gt;Sao Paulo -->
<g id="edge33" class="edge">
<title>Miami&#45;&gt;Sao Paulo</title>
<path fill="none" stroke="red" d="M548.26,-919.2C593.59,-852.09 947.47,-328.13 1015.26,-227.76"/>
<polygon fill="red" stroke="red" points="1018.1,-229.81 1020.8,-219.56 1012.3,-225.89 1018.1,-229.81"/>
</g>
<!-- Monte Carlo&#45;&gt;Le Castellet -->
<g id="edge24" class="edge">
<title>Monte Carlo&#45;&gt;Le Castellet</title>
<path fill="none" stroke="red" d="M1801.63,-1174.83C1801.58,-1174.8 1801.53,-1174.76 1801.48,-1174.73"/>
<polygon fill="red" stroke="red" points="1812.97,-1177.68 1802.62,-1175.43 1809.31,-1183.65 1812.97,-1177.68"/>
</g>
<!-- Monte Carlo&#45;&gt;Le Castellet -->
<g id="edge42" class="edge">
<title>Monte Carlo&#45;&gt;Le Castellet</title>
<path fill="none" stroke="blue" d="M1782.21,-1175.73C1782.22,-1175.7 1782.22,-1175.66 1782.23,-1175.63"/>
<polygon fill="blue" stroke="blue" points="1782.99,-1187.54 1781.9,-1177 1776.18,-1185.92 1782.99,-1187.54"/>
</g>
<!-- Montreal&#45;&gt;Las Vegas -->
<g id="edge29" class="edge">
<title>Montreal&#45;&gt;Las Vegas</title>
<path fill="none" stroke="red" d="M607.06,-1200.31C505.7,-1177.45 199.47,-1108.4 84.63,-1082.5"/>
<polygon fill="red" stroke="red" points="85.49,-1079.11 74.97,-1080.33 83.95,-1085.94 85.49,-1079.11"/>
</g>
<!-- Montreal&#45;&gt;Miami -->
<g id="edge58" class="edge">
<title>Montreal&#45;&gt;Miami</title>
<path fill="none" stroke="blue" d="M637.67,-1200.53C625.14,-1164.04 568.77,-999.93 549.76,-944.57"/>
<polygon fill="blue" stroke="blue" points="553.09,-943.48 546.53,-935.16 546.47,-945.76 553.09,-943.48"/>
</g>
<!-- Monza&#45;&gt;Hockenheim -->
<g id="edge17" class="edge">
<title>Monza&#45;&gt;Hockenheim</title>
<path fill="none" stroke="red" d="M1826.11,-1216.81C1823.07,-1223.84 1820.52,-1234.68 1819.48,-1244.09"/>
<polygon fill="red" stroke="red" points="1815.99,-1243.9 1819.15,-1254.01 1822.98,-1244.13 1815.99,-1243.9"/>
</g>
<!-- Monza&#45;&gt;Imola -->
<g id="edge39" class="edge">
<title>Monza&#45;&gt;Imola</title>
<path fill="none" stroke="blue" d="M1846.89,-1201.93C1847.03,-1201.85 1847.17,-1201.78 1847.31,-1201.7"/>
<polygon fill="blue" stroke="blue" points="1845.2,-1206.78 1852.41,-1199.01 1841.93,-1200.59 1845.2,-1206.78"/>
</g>
<!-- Nürburg&#45;&gt;Hockenheim -->
<g id="edge37" class="edge">
<title>Nürburg&#45;&gt;Hockenheim</title>
<path fill="none" stroke="blue" d="M1821.03,-1269.84C1821.09,-1269.76 1821.15,-1269.68 1821.2,-1269.61"/>
<polygon fill="blue" stroke="blue" points="1817.58,-1280.8 1820.49,-1270.61 1811.86,-1276.76 1817.58,-1280.8"/>
</g>
<!-- Spa Francorchamps -->
<g id="node32" class="node">
<title>Spa Francorchamps</title>
<text text-anchor="middle" x="1784.9" y="-1272.96" font-family="Times,serif" font-size="14.00">Spa Francorchamps</text>
</g>
<!-- Nürburg&#45;&gt;Spa Francorchamps -->
<g id="edge19" class="edge">
<title>Nürburg&#45;&gt;Spa Francorchamps</title>
<path fill="none" stroke="red" d="M1784.87,-1278.35C1784.87,-1278.38 1784.87,-1278.41 1784.87,-1278.45"/>
<polygon fill="red" stroke="red" points="1780.53,-1267.33 1784.77,-1277.04 1787.51,-1266.81 1780.53,-1267.33"/>
</g>
<!-- Portimão&#45;&gt;Estoril -->
<g id="edge27" class="edge">
<title>Portimão&#45;&gt;Estoril</title>
<path fill="none" stroke="red" d="M1563.4,-1096.01C1563.32,-1096.15 1563.25,-1096.29 1563.18,-1096.44"/>
<polygon fill="red" stroke="red" points="1561.3,-1090.99 1561.47,-1101.58 1567.94,-1093.19 1561.3,-1090.99"/>
</g>
<!-- Portimão&#45;&gt;Estoril -->
<g id="edge56" class="edge">
<title>Portimão&#45;&gt;Estoril</title>
<path fill="none" stroke="blue" d="M1577.34,-1096.05C1577.31,-1096.2 1577.29,-1096.35 1577.27,-1096.5"/>
<polygon fill="blue" stroke="blue" points="1575.42,-1091.3 1575.33,-1101.89 1582.01,-1093.67 1575.42,-1091.3"/>
</g>
<!-- Sakhir&#45;&gt;Jeddah -->
<g id="edge8" class="edge">
<title>Sakhir&#45;&gt;Jeddah</title>
<path fill="none" stroke="red" d="M2407.13,-919.94C2378.76,-909 2325.36,-888.41 2291.85,-875.49"/>
<polygon fill="red" stroke="red" points="2293.32,-872.3 2282.73,-871.97 2290.8,-878.83 2293.32,-872.3"/>
</g>
<!-- Sakhir&#45;&gt;Lusail -->
<g id="edge52" class="edge">
<title>Sakhir&#45;&gt;Lusail</title>
<path fill="none" stroke="blue" d="M2440.05,-919.9C2440.04,-919.87 2440.02,-919.84 2440.01,-919.81"/>
<polygon fill="blue" stroke="blue" points="2448.45,-928.26 2440.67,-921.06 2442.26,-931.54 2448.45,-928.26"/>
</g>
<!-- Sao Paulo&#45;&gt;Jacarepaguá -->
<g id="edge34" class="edge">
<title>Sao Paulo&#45;&gt;Jacarepaguá</title>
<path fill="none" stroke="red" d="M1034.47,-218.52C1034.52,-218.54 1034.57,-218.57 1034.62,-218.59"/>
<polygon fill="red" stroke="red" points="1022.82,-217.29 1033.39,-218.05 1025.6,-210.87 1022.82,-217.29"/>
</g>
<!-- Sao Paulo&#45;&gt;Jacarepaguá -->
<g id="edge68" class="edge">
<title>Sao Paulo&#45;&gt;Jacarepaguá</title>
<path fill="none" stroke="blue" d="M1066.88,-214.66C1066.95,-214.7 1067.02,-214.73 1067.1,-214.77"/>
<polygon fill="blue" stroke="blue" points="1055.41,-213.08 1065.94,-214.22 1058.42,-206.76 1055.41,-213.08"/>
</g>
<!-- Scarperia e San Piero&#45;&gt;Monte Carlo -->
<g id="edge41" class="edge">
<title>Scarperia e San Piero&#45;&gt;Monte Carlo</title>
<path fill="none" stroke="blue" d="M1806.06,-1182.31C1806.03,-1182.3 1806.01,-1182.3 1805.99,-1182.3"/>
<polygon fill="blue" stroke="blue" points="1817.66,-1179.59 1807.45,-1182.4 1817.19,-1186.57 1817.66,-1179.59"/>
</g>
<!-- Scarperia e San Piero&#45;&gt;Monza -->
<g id="edge16" class="edge">
<title>Scarperia e San Piero&#45;&gt;Monza</title>
<path fill="none" stroke="red" d="M1853.19,-1193.45C1852.41,-1194.06 1851.61,-1194.68 1850.79,-1195.32"/>
<polygon fill="red" stroke="red" points="1848.95,-1192.32 1843.21,-1201.23 1853.25,-1197.84 1848.95,-1192.32"/>
</g>
<!-- Sepang -->
<g id="node27" class="node">
<title>Sepang</title>
<text text-anchor="middle" x="3163.95" y="-586.44" font-family="Times,serif" font-size="14.00">Sepang</text>
</g>
<!-- Sepang&#45;&gt;Abu Dhabi -->
<g id="edge5" class="edge">
<title>Sepang&#45;&gt;Abu Dhabi</title>
<path fill="none" stroke="red" d="M3147.84,-599.66C3058.55,-640.78 2624.41,-840.74 2511.86,-892.57"/>
<polygon fill="red" stroke="red" points="2510.43,-889.38 2502.81,-896.74 2513.36,-895.74 2510.43,-889.38"/>
</g>
<!-- Singapore -->
<g id="node30" class="node">
<title>Singapore</title>
<text text-anchor="middle" x="3194.49" y="-565.27" font-family="Times,serif" font-size="14.00">Singapore</text>
</g>
<!-- Sepang&#45;&gt;Singapore -->
<g id="edge65" class="edge">
<title>Sepang&#45;&gt;Singapore</title>
<path fill="none" stroke="blue" d="M3186.19,-584.88C3186.35,-584.74 3186.52,-584.61 3186.68,-584.47"/>
<polygon fill="blue" stroke="blue" points="3187.23,-588.91 3191.75,-579.33 3182.24,-583.99 3187.23,-588.91"/>
</g>
<!-- Shanghai -->
<g id="node28" class="node">
<title>Shanghai</title>
<text text-anchor="middle" x="3444.5" y="-997.98" font-family="Times,serif" font-size="14.00">Shanghai</text>
</g>
<!-- Shanghai&#45;&gt;Sepang -->
<g id="edge64" class="edge">
<title>Shanghai&#45;&gt;Sepang</title>
<path fill="none" stroke="blue" d="M3439.39,-996.28C3406.4,-947.89 3223.3,-679.31 3175.41,-609.06"/>
<polygon fill="blue" stroke="blue" points="3178.31,-607.09 3169.78,-600.8 3172.52,-611.03 3178.31,-607.09"/>
</g>
<!-- Shanghai&#45;&gt;Singapore -->
<g id="edge3" class="edge">
<title>Shanghai&#45;&gt;Singapore</title>
<path fill="none" stroke="red" d="M3440.37,-996.63C3412.11,-947.71 3247.1,-662.13 3204.51,-588.42"/>
<polygon fill="red" stroke="red" points="3207.56,-586.7 3199.53,-579.79 3201.5,-590.2 3207.56,-586.7"/>
</g>
<!-- Silverstone&#45;&gt;Magny&#45;Cours -->
<g id="edge22" class="edge">
<title>Silverstone&#45;&gt;Magny&#45;Cours</title>
<path fill="none" stroke="red" d="M1696.42,-1294.92C1708.98,-1283.06 1727.68,-1260.02 1737.84,-1244.08"/>
<polygon fill="red" stroke="red" points="1740.69,-1246.15 1742.58,-1235.72 1734.6,-1242.69 1740.69,-1246.15"/>
</g>
<!-- Silverstone&#45;&gt;Spielberg -->
<g id="edge46" class="edge">
<title>Silverstone&#45;&gt;Spielberg</title>
<path fill="none" stroke="blue" d="M1708.59,-1294.85C1748.99,-1282.43 1830.09,-1257.51 1876.58,-1243.22"/>
<polygon fill="blue" stroke="blue" points="1877.36,-1246.64 1885.89,-1240.36 1875.3,-1239.95 1877.36,-1246.64"/>
</g>
<!-- Singapore&#45;&gt;Melbourne -->
<g id="edge66" class="edge">
<title>Singapore&#45;&gt;Melbourne</title>
<path fill="none" stroke="blue" d="M3201.97,-563.95C3263.32,-505.55 3683.18,-105.85 3770.57,-22.65"/>
<polygon fill="blue" stroke="blue" points="3772.84,-25.32 3777.67,-15.89 3768.01,-20.25 3772.84,-25.32"/>
</g>
<!-- Singapore&#45;&gt;Sepang -->
<g id="edge4" class="edge">
<title>Singapore&#45;&gt;Sepang</title>
<path fill="none" stroke="red" d="M3172.25,-578.44C3172.08,-578.57 3171.92,-578.71 3171.75,-578.84"/>
<polygon fill="red" stroke="red" points="3171.21,-574.41 3166.68,-583.98 3176.19,-579.32 3171.21,-574.41"/>
</g>
<!-- Sochi&#45;&gt;Baku -->
<g id="edge50" class="edge">
<title>Sochi&#45;&gt;Baku</title>
<path fill="none" stroke="blue" d="M2296.8,-1175.82C2323.88,-1169.95 2369.04,-1156.12 2395.52,-1145.62"/>
<polygon fill="blue" stroke="blue" points="2396.69,-1148.93 2404.54,-1141.81 2393.96,-1142.48 2396.69,-1148.93"/>
</g>
<!-- Sochi&#45;&gt;Istanbul -->
<g id="edge11" class="edge">
<title>Sochi&#45;&gt;Istanbul</title>
<path fill="none" stroke="red" d="M2260.72,-1170.09C2240.39,-1162.83 2201.12,-1153.01 2169.62,-1146.81"/>
<polygon fill="red" stroke="red" points="2170.37,-1143.39 2159.9,-1144.98 2169.08,-1150.27 2170.37,-1143.39"/>
</g>
<!-- Spa Francorchamps&#45;&gt;Nürburg -->
<g id="edge36" class="edge">
<title>Spa Francorchamps&#45;&gt;Nürburg</title>
<path fill="none" stroke="blue" d="M1798.93,-1277.71C1798.93,-1277.67 1798.93,-1277.64 1798.93,-1277.6"/>
<polygon fill="blue" stroke="blue" points="1803.27,-1288.72 1799.03,-1279.01 1796.29,-1289.24 1803.27,-1288.72"/>
</g>
<!-- Zandvoort -->
<g id="node35" class="node">
<title>Zandvoort</title>
<text text-anchor="middle" x="1764.31" y="-1301.08" font-family="Times,serif" font-size="14.00">Zandvoort</text>
</g>
<!-- Spa Francorchamps&#45;&gt;Zandvoort -->
<g id="edge20" class="edge">
<title>Spa Francorchamps&#45;&gt;Zandvoort</title>
<path fill="none" stroke="red" d="M1771.42,-1285.97C1770.42,-1287.14 1769.45,-1288.39 1768.55,-1289.68"/>
<polygon fill="red" stroke="red" points="1765.64,-1287.69 1764.13,-1298.18 1771.85,-1290.92 1765.64,-1287.69"/>
</g>
<!-- Spielberg&#45;&gt;Budapest -->
<g id="edge47" class="edge">
<title>Spielberg&#45;&gt;Budapest</title>
<path fill="none" stroke="blue" d="M1928.65,-1239.98C1928.89,-1240.02 1929.12,-1240.06 1929.35,-1240.1"/>
<polygon fill="blue" stroke="blue" points="1928.67,-1243.54 1939.04,-1241.38 1929.58,-1236.6 1928.67,-1243.54"/>
</g>
<!-- Spielberg&#45;&gt;Imola -->
<g id="edge14" class="edge">
<title>Spielberg&#45;&gt;Imola</title>
<path fill="none" stroke="red" d="M1903.83,-1225.26C1898.24,-1219.97 1890.45,-1212.61 1883.52,-1206.06"/>
<polygon fill="red" stroke="red" points="1886.21,-1203.79 1876.54,-1199.46 1881.4,-1208.87 1886.21,-1203.79"/>
</g>
<!-- Suzuka&#45;&gt;Shanghai -->
<g id="edge2" class="edge">
<title>Suzuka&#45;&gt;Shanghai</title>
<path fill="none" stroke="red" d="M3649.28,-1046.77C3616.73,-1036.01 3540.94,-1018.05 3491.25,-1008.75"/>
<polygon fill="red" stroke="red" points="3492.1,-1005.34 3481.64,-1007.01 3490.86,-1012.23 3492.1,-1005.34"/>
</g>
<!-- Suzuka&#45;&gt;Shanghai -->
<g id="edge63" class="edge">
<title>Suzuka&#45;&gt;Shanghai</title>
<path fill="none" stroke="blue" d="M3638.27,-1052.76C3595.77,-1046.04 3513.31,-1027.21 3470.97,-1014.6"/>
<polygon fill="blue" stroke="blue" points="3472.19,-1011.32 3461.61,-1011.68 3470.11,-1018 3472.19,-1011.32"/>
</g>
<!-- Zandvoort&#45;&gt;Silverstone -->
<g id="edge21" class="edge">
<title>Zandvoort&#45;&gt;Silverstone</title>
<path fill="none" stroke="red" d="M1723.82,-1304.57C1723.75,-1304.57 1723.67,-1304.57 1723.59,-1304.56"/>
<polygon fill="red" stroke="red" points="1735.05,-1301.71 1724.87,-1304.64 1734.65,-1308.7 1735.05,-1301.71"/>
</g>
<!-- Zandvoort&#45;&gt;Spa Francorchamps -->
<g id="edge35" class="edge">
<title>Zandvoort&#45;&gt;Spa Francorchamps</title>
<path fill="none" stroke="blue" d="M1777.79,-1299.68C1778.79,-1298.5 1779.76,-1297.25 1780.66,-1295.96"/>
<polygon fill="blue" stroke="blue" points="1783.57,-1297.96 1785.08,-1287.47 1777.36,-1294.73 1783.57,-1297.96"/>
</g>
</g>
</svg>
