<?xml version="1.0" encoding="UTF-8" standalone="no"?>
<!DOCTYPE svg PUBLIC "-//W3C//DTD SVG 1.1//EN"
 "http://www.w3.org/Graphics/SVG/1.1/DTD/svg11.dtd">
<!-- Generated by graphviz version 10.0.1 (0)
 -->
<!-- Title: main Pages: 1 -->
<svg width="3835pt" height="1322pt"
 viewBox="0.00 0.00 3834.99 1322.38" xmlns="http://www.w3.org/2000/svg" xmlns:xlink="http://www.w3.org/1999/xlink">
<g id="graph0" class="graph" transform="scale(1 1) rotate(0) translate(4 1318.38)">
<title>main</title>
<polygon fill="white" stroke="none" points="-4,4 -4,-1318.38 3830.99,-1318.38 3830.99,4 -4,4"/>
<!-- Abu Dhabi -->
<g id="node1" class="node">
<title>Abu Dhabi</title>
<text text-anchor="middle" x="2485.17" y="-899.06" font-family="Times,serif" font-size="14.00">Abu Dhabi</text>
</g>
<!-- Jeddah -->
<g id="node11" class="node">
<title>Jeddah</title>
<text text-anchor="middle" x="2262.02" y="-858.18" font-family="Times,serif" font-size="14.00">Jeddah</text>
</g>
<!-- Abu Dhabi&#45;&gt;Jeddah -->
<g id="edge20" class="edge">
<title>Abu Dhabi&#45;&gt;Jeddah</title>
<path fill="none" stroke="blue" d="M2444.76,-897.46C2403.61,-889.92 2340.29,-878.32 2300.02,-870.95"/>
<polygon fill="blue" stroke="blue" points="2300.77,-867.52 2290.31,-869.17 2299.51,-874.41 2300.77,-867.52"/>
</g>
<!-- Austin -->
<g id="node2" class="node">
<title>Austin</title>
<text text-anchor="middle" x="293" y="-980.63" font-family="Times,serif" font-size="14.00">Austin</text>
</g>
<!-- Mexico City -->
<g id="node17" class="node">
<title>Mexico City</title>
<text text-anchor="middle" x="272.01" y="-826.07" font-family="Times,serif" font-size="14.00">Mexico City</text>
</g>
<!-- Austin&#45;&gt;Mexico City -->
<g id="edge26" class="edge">
<title>Austin&#45;&gt;Mexico City</title>
<path fill="none" stroke="blue" d="M291.99,-978.97C288.84,-955.77 279.14,-884.34 274.51,-850.29"/>
<polygon fill="blue" stroke="blue" points="278.03,-850.19 273.22,-840.75 271.09,-851.13 278.03,-850.19"/>
</g>
<!-- Baku -->
<g id="node3" class="node">
<title>Baku</title>
<text text-anchor="middle" x="2416.64" y="-1128" font-family="Times,serif" font-size="14.00">Baku</text>
</g>
<!-- Sakhir -->
<g id="node24" class="node">
<title>Sakhir</title>
<text text-anchor="middle" x="2426.29" y="-921.53" font-family="Times,serif" font-size="14.00">Sakhir</text>
</g>
<!-- Baku&#45;&gt;Sakhir -->
<g id="edge17" class="edge">
<title>Baku&#45;&gt;Sakhir</title>
<path fill="none" stroke="blue" d="M2416.99,-1126.45C2418.34,-1097.41 2423.36,-990.13 2425.41,-946.24"/>
<polygon fill="blue" stroke="blue" points="2428.9,-946.47 2425.87,-936.32 2421.91,-946.14 2428.9,-946.47"/>
</g>
<!-- Barcelona -->
<g id="node4" class="node">
<title>Barcelona</title>
<text text-anchor="middle" x="1731.45" y="-1145.28" font-family="Times,serif" font-size="14.00">Barcelona</text>
</g>
<!-- Magny&#45;Cours -->
<g id="node15" class="node">
<title>Magny&#45;Cours</title>
<text text-anchor="middle" x="1744.48" y="-1221.51" font-family="Times,serif" font-size="14.00">Magny&#45;Cours</text>
</g>
<!-- Barcelona&#45;&gt;Magny&#45;Cours -->
<g id="edge10" class="edge">
<title>Barcelona&#45;&gt;Magny&#45;Cours</title>
<path fill="none" stroke="blue" d="M1732.7,-1158.39C1734.67,-1169.91 1738.56,-1192.67 1741.33,-1208.88"/>
<polygon fill="blue" stroke="blue" points="1737.86,-1209.37 1743,-1218.64 1744.76,-1208.19 1737.86,-1209.37"/>
</g>
<!-- Budapest -->
<g id="node5" class="node">
<title>Budapest</title>
<text text-anchor="middle" x="1976.12" y="-1231.88" font-family="Times,serif" font-size="14.00">Budapest</text>
</g>
<!-- Istanbul -->
<g id="node9" class="node">
<title>Istanbul</title>
<text text-anchor="middle" x="2122.45" y="-1136.48" font-family="Times,serif" font-size="14.00">Istanbul</text>
</g>
<!-- Budapest&#45;&gt;Istanbul -->
<g id="edge14" class="edge">
<title>Budapest&#45;&gt;Istanbul</title>
<path fill="none" stroke="blue" d="M1987.6,-1230.19C2012.18,-1214.17 2070.18,-1176.35 2101.51,-1155.93"/>
<polygon fill="blue" stroke="blue" points="2103.29,-1158.95 2109.75,-1150.56 2099.47,-1153.08 2103.29,-1158.95"/>
</g>
<!-- Estoril -->
<g id="node6" class="node">
<title>Estoril</title>
<text text-anchor="middle" x="1563.65" y="-1104.7" font-family="Times,serif" font-size="14.00">Estoril</text>
</g>
<!-- Montreal -->
<g id="node20" class="node">
<title>Montreal</title>
<text text-anchor="middle" x="640.16" y="-1201.97" font-family="Times,serif" font-size="14.00">Montreal</text>
</g>
<!-- Estoril&#45;&gt;Montreal -->
<g id="edge23" class="edge">
<title>Estoril&#45;&gt;Montreal</title>
<path fill="none" stroke="blue" d="M1532.39,-1113.79C1395.86,-1128.17 851.28,-1185.53 687.19,-1202.82"/>
<polygon fill="blue" stroke="blue" points="687.13,-1199.3 677.55,-1203.83 687.86,-1206.26 687.13,-1199.3"/>
</g>
<!-- Hockenheim -->
<g id="node7" class="node">
<title>Hockenheim</title>
<text text-anchor="middle" x="1822.36" y="-1257.03" font-family="Times,serif" font-size="14.00">Hockenheim</text>
</g>
<!-- Monza -->
<g id="node21" class="node">
<title>Monza</title>
<text text-anchor="middle" x="1832.7" y="-1203.62" font-family="Times,serif" font-size="14.00">Monza</text>
</g>
<!-- Hockenheim&#45;&gt;Monza -->
<g id="edge4" class="edge">
<title>Hockenheim&#45;&gt;Monza</title>
<path fill="none" stroke="blue" d="M1823.79,-1255.41C1825.17,-1248.31 1827.29,-1237.33 1829.12,-1227.88"/>
<polygon fill="blue" stroke="blue" points="1832.52,-1228.76 1830.98,-1218.27 1825.65,-1227.43 1832.52,-1228.76"/>
</g>
<!-- Imola -->
<g id="node8" class="node">
<title>Imola</title>
<text text-anchor="middle" x="1867.59" y="-1185.19" font-family="Times,serif" font-size="14.00">Imola</text>
</g>
<!-- Scarperia e San Piero -->
<g id="node26" class="node">
<title>Scarperia e San Piero</title>
<text text-anchor="middle" x="1862.68" y="-1180.25" font-family="Times,serif" font-size="14.00">Scarperia e San Piero</text>
</g>
<!-- Imola&#45;&gt;Scarperia e San Piero -->
<g id="edge6" class="edge">
<title>Imola&#45;&gt;Scarperia e San Piero</title>
<path fill="none" stroke="blue" d="M1862.73,-1186.11C1862.72,-1186.1 1862.71,-1186.09 1862.71,-1186.09"/>
<polygon fill="blue" stroke="blue" points="1873.31,-1191.77 1863.76,-1187.14 1868.33,-1196.72 1873.31,-1191.77"/>
</g>
<!-- Sochi -->
<g id="node31" class="node">
<title>Sochi</title>
<text text-anchor="middle" x="2274.34" y="-1171.74" font-family="Times,serif" font-size="14.00">Sochi</text>
</g>
<!-- Istanbul&#45;&gt;Sochi -->
<g id="edge15" class="edge">
<title>Istanbul&#45;&gt;Sochi</title>
<path fill="none" stroke="blue" d="M2154.66,-1149.76C2180.04,-1155.65 2215.29,-1163.83 2240.96,-1169.79"/>
<polygon fill="blue" stroke="blue" points="2240.01,-1173.16 2250.54,-1172.02 2241.59,-1166.35 2240.01,-1173.16"/>
</g>
<!-- Jacarepaguá -->
<g id="node10" class="node">
<title>Jacarepaguá</title>
<text text-anchor="middle" x="1074.03" y="-215.83" font-family="Times,serif" font-size="14.00">Jacarepaguá</text>
</g>
<!-- Portimão -->
<g id="node23" class="node">
<title>Portimão</title>
<text text-anchor="middle" x="1574.68" y="-1082.82" font-family="Times,serif" font-size="14.00">Portimão</text>
</g>
<!-- Jeddah&#45;&gt;Portimão -->
<g id="edge21" class="edge">
<title>Jeddah&#45;&gt;Portimão</title>
<path fill="none" stroke="blue" d="M2239.15,-871.46C2137.71,-904.61 1728.18,-1038.45 1607.99,-1077.74"/>
<polygon fill="blue" stroke="blue" points="1607.14,-1074.33 1598.72,-1080.76 1609.31,-1080.98 1607.14,-1074.33"/>
</g>
<!-- Las Vegas -->
<g id="node12" class="node">
<title>Las Vegas</title>
<text text-anchor="middle" x="40.5" y="-1066.75" font-family="Times,serif" font-size="14.00">Las Vegas</text>
</g>
<!-- Suzuka -->
<g id="node34" class="node">
<title>Suzuka</title>
<text text-anchor="middle" x="3665.01" y="-1048.44" font-family="Times,serif" font-size="14.00">Suzuka</text>
</g>
<!-- Las Vegas&#45;&gt;Suzuka -->
<g id="edge28" class="edge">
<title>Las Vegas&#45;&gt;Suzuka</title>
<path fill="none" stroke="blue" d="M80.89,-1072.35C452.21,-1070.47 3266.43,-1056.25 3627.02,-1054.43"/>
<polygon fill="blue" stroke="blue" points="3626.85,-1057.93 3636.84,-1054.38 3626.82,-1050.93 3626.85,-1057.93"/>
</g>
<!-- Le Castellet -->
<g id="node13" class="node">
<title>Le Castellet</title>
<text text-anchor="middle" x="1782.31" y="-1169.53" font-family="Times,serif" font-size="14.00">Le Castellet</text>
</g>
<!-- Le Castellet&#45;&gt;Barcelona -->
<g id="edge9" class="edge">
<title>Le Castellet&#45;&gt;Barcelona</title>
<path fill="none" stroke="blue" d="M1766.77,-1167.92C1763.72,-1166.46 1760.43,-1164.9 1757.15,-1163.33"/>
<polygon fill="blue" stroke="blue" points="1758.79,-1160.23 1748.26,-1159.09 1755.78,-1166.55 1758.79,-1160.23"/>
</g>
<!-- Lusail -->
<g id="node14" class="node">
<title>Lusail</title>
<text text-anchor="middle" x="2439.86" y="-913.74" font-family="Times,serif" font-size="14.00">Lusail</text>
</g>
<!-- Lusail&#45;&gt;Abu Dhabi -->
<g id="edge19" class="edge">
<title>Lusail&#45;&gt;Abu Dhabi</title>
<path fill="none" stroke="blue" d="M2462.78,-912.12C2462.82,-912.1 2462.87,-912.09 2462.91,-912.07"/>
<polygon fill="blue" stroke="blue" points="2453.17,-918.91 2461.6,-912.5 2451.01,-912.25 2453.17,-918.91"/>
</g>
<!-- Silverstone -->
<g id="node29" class="node">
<title>Silverstone</title>
<text text-anchor="middle" x="1684.27" y="-1296.52" font-family="Times,serif" font-size="14.00">Silverstone</text>
</g>
<!-- Magny&#45;Cours&#45;&gt;Silverstone -->
<g id="edge11" class="edge">
<title>Magny&#45;Cours&#45;&gt;Silverstone</title>
<path fill="none" stroke="blue" d="M1738.49,-1234.78C1728.93,-1246.68 1710.02,-1270.25 1697.26,-1286.15"/>
<polygon fill="blue" stroke="blue" points="1694.72,-1283.71 1691.19,-1293.7 1700.18,-1288.09 1694.72,-1283.71"/>
</g>
<!-- Melbourne -->
<g id="node16" class="node">
<title>Melbourne</title>
<text text-anchor="middle" x="3786.49" y="-1.7" font-family="Times,serif" font-size="14.00">Melbourne</text>
</g>
<!-- Sao Paulo -->
<g id="node25" class="node">
<title>Sao Paulo</title>
<text text-anchor="middle" x="1026.47" y="-205.37" font-family="Times,serif" font-size="14.00">Sao Paulo</text>
</g>
<!-- Melbourne&#45;&gt;Sao Paulo -->
<g id="edge33" class="edge">
<title>Melbourne&#45;&gt;Sao Paulo</title>
<path fill="none" stroke="blue" d="M3746.14,-10.48C3435.53,-33.4 1427.29,-181.6 1078.17,-207.36"/>
<polygon fill="blue" stroke="blue" points="1078.15,-203.85 1068.43,-208.08 1078.66,-210.83 1078.15,-203.85"/>
</g>
<!-- Mexico City&#45;&gt;Las Vegas -->
<g id="edge27" class="edge">
<title>Mexico City&#45;&gt;Las Vegas</title>
<path fill="none" stroke="blue" d="M264.83,-839.34C232.49,-872.96 100.02,-1010.68 55.31,-1057.15"/>
<polygon fill="blue" stroke="blue" points="53.06,-1054.45 48.65,-1064.08 58.1,-1059.3 53.06,-1054.45"/>
</g>
<!-- Miami -->
<g id="node18" class="node">
<title>Miami</title>
<text text-anchor="middle" x="543.48" y="-920.48" font-family="Times,serif" font-size="14.00">Miami</text>
</g>
<!-- Miami&#45;&gt;Austin -->
<g id="edge25" class="edge">
<title>Miami&#45;&gt;Austin</title>
<path fill="none" stroke="blue" d="M521.25,-931.62C478.31,-941.93 383.51,-964.69 330.59,-977.4"/>
<polygon fill="blue" stroke="blue" points="330.04,-973.93 321.13,-979.67 331.67,-980.74 330.04,-973.93"/>
</g>
<!-- Monte Carlo -->
<g id="node19" class="node">
<title>Monte Carlo</title>
<text text-anchor="middle" x="1805.9" y="-1176.5" font-family="Times,serif" font-size="14.00">Monte Carlo</text>
</g>
<!-- Monte Carlo&#45;&gt;Le Castellet -->
<g id="edge8" class="edge">
<title>Monte Carlo&#45;&gt;Le Castellet</title>
<path fill="none" stroke="blue" d="M1782.38,-1175.35C1782.37,-1175.34 1782.36,-1175.34 1782.35,-1175.34"/>
<polygon fill="blue" stroke="blue" points="1794.37,-1175.27 1783.78,-1175.76 1792.37,-1181.99 1794.37,-1175.27"/>
</g>
<!-- Montreal&#45;&gt;Miami -->
<g id="edge24" class="edge">
<title>Montreal&#45;&gt;Miami</title>
<path fill="none" stroke="blue" d="M637.67,-1200.53C625.14,-1164.04 568.77,-999.93 549.76,-944.57"/>
<polygon fill="blue" stroke="blue" points="553.09,-943.48 546.53,-935.16 546.47,-945.76 553.09,-943.48"/>
</g>
<!-- Monza&#45;&gt;Imola -->
<g id="edge5" class="edge">
<title>Monza&#45;&gt;Imola</title>
<path fill="none" stroke="blue" d="M1846.89,-1201.93C1847.03,-1201.85 1847.17,-1201.78 1847.31,-1201.7"/>
<polygon fill="blue" stroke="blue" points="1845.2,-1206.78 1852.41,-1199.01 1841.93,-1200.59 1845.2,-1206.78"/>
</g>
<!-- Nürburg -->
<g id="node22" class="node">
<title>Nürburg</title>
<text text-anchor="middle" x="1798.9" y="-1271.49" font-family="Times,serif" font-size="14.00">Nürburg</text>
</g>
<!-- Nürburg&#45;&gt;Hockenheim -->
<g id="edge3" class="edge">
<title>Nürburg&#45;&gt;Hockenheim</title>
<path fill="none" stroke="blue" d="M1810.9,-1269.89C1810.95,-1269.87 1810.99,-1269.84 1811.04,-1269.81"/>
<polygon fill="blue" stroke="blue" points="1803.21,-1278.75 1809.88,-1270.52 1799.53,-1272.79 1803.21,-1278.75"/>
</g>
<!-- Portimão&#45;&gt;Estoril -->
<g id="edge22" class="edge">
<title>Portimão&#45;&gt;Estoril</title>
<path fill="none" stroke="blue" d="M1570.94,-1096.03C1570.87,-1096.17 1570.8,-1096.31 1570.72,-1096.46"/>
<polygon fill="blue" stroke="blue" points="1569.44,-1091.24 1568.06,-1101.75 1575.69,-1094.39 1569.44,-1091.24"/>
</g>
<!-- Sakhir&#45;&gt;Lusail -->
<g id="edge18" class="edge">
<title>Sakhir&#45;&gt;Lusail</title>
<path fill="none" stroke="blue" d="M2439.27,-919.87C2439.37,-919.82 2439.45,-919.77 2439.52,-919.73"/>
<polygon fill="blue" stroke="blue" points="2431.46,-928.4 2438.39,-920.38 2427.98,-922.33 2431.46,-928.4"/>
</g>
<!-- Sao Paulo&#45;&gt;Jacarepaguá -->
<g id="edge34" class="edge">
<title>Sao Paulo&#45;&gt;Jacarepaguá</title>
<path fill="none" stroke="blue" d="M1060.53,-218.66C1060.59,-218.67 1060.65,-218.69 1060.71,-218.7"/>
<polygon fill="blue" stroke="blue" points="1048.89,-219.68 1059.41,-218.41 1050.39,-212.84 1048.89,-219.68"/>
</g>
<!-- Scarperia e San Piero&#45;&gt;Monte Carlo -->
<g id="edge7" class="edge">
<title>Scarperia e San Piero&#45;&gt;Monte Carlo</title>
<path fill="none" stroke="blue" d="M1806.06,-1182.31C1806.03,-1182.3 1806.01,-1182.3 1805.99,-1182.3"/>
<polygon fill="blue" stroke="blue" points="1817.66,-1179.59 1807.45,-1182.4 1817.19,-1186.57 1817.66,-1179.59"/>
</g>
<!-- Sepang -->
<g id="node27" class="node">
<title>Sepang</title>
<text text-anchor="middle" x="3163.95" y="-586.44" font-family="Times,serif" font-size="14.00">Sepang</text>
</g>
<!-- Singapore -->
<g id="node30" class="node">
<title>Singapore</title>
<text text-anchor="middle" x="3194.49" y="-565.27" font-family="Times,serif" font-size="14.00">Singapore</text>
</g>
<!-- Sepang&#45;&gt;Singapore -->
<g id="edge31" class="edge">
<title>Sepang&#45;&gt;Singapore</title>
<path fill="none" stroke="blue" d="M3174.63,-584.84C3174.72,-584.77 3174.82,-584.71 3174.91,-584.64"/>
<polygon fill="blue" stroke="blue" points="3176.5,-587.8 3182.72,-579.23 3172.51,-582.05 3176.5,-587.8"/>
</g>
<!-- Shanghai -->
<g id="node28" class="node">
<title>Shanghai</title>
<text text-anchor="middle" x="3444.5" y="-997.98" font-family="Times,serif" font-size="14.00">Shanghai</text>
</g>
<!-- Shanghai&#45;&gt;Sepang -->
<g id="edge30" class="edge">
<title>Shanghai&#45;&gt;Sepang</title>
<path fill="none" stroke="blue" d="M3439.39,-996.28C3406.4,-947.89 3223.3,-679.31 3175.41,-609.06"/>
<polygon fill="blue" stroke="blue" points="3178.31,-607.09 3169.78,-600.8 3172.52,-611.03 3178.31,-607.09"/>
</g>
<!-- Spielberg -->
<g id="node33" class="node">
<title>Spielberg</title>
<text text-anchor="middle" x="1911.48" y="-1226.69" font-family="Times,serif" font-size="14.00">Spielberg</text>
</g>
<!-- Silverstone&#45;&gt;Spielberg -->
<g id="edge12" class="edge">
<title>Silverstone&#45;&gt;Spielberg</title>
<path fill="none" stroke="blue" d="M1708.59,-1294.85C1748.99,-1282.43 1830.09,-1257.51 1876.58,-1243.22"/>
<polygon fill="blue" stroke="blue" points="1877.36,-1246.64 1885.89,-1240.36 1875.3,-1239.95 1877.36,-1246.64"/>
</g>
<!-- Singapore&#45;&gt;Melbourne -->
<g id="edge32" class="edge">
<title>Singapore&#45;&gt;Melbourne</title>
<path fill="none" stroke="blue" d="M3201.97,-563.95C3263.32,-505.55 3683.18,-105.85 3770.57,-22.65"/>
<polygon fill="blue" stroke="blue" points="3772.84,-25.32 3777.67,-15.89 3768.01,-20.25 3772.84,-25.32"/>
</g>
<!-- Sochi&#45;&gt;Baku -->
<g id="edge16" class="edge">
<title>Sochi&#45;&gt;Baku</title>
<path fill="none" stroke="blue" d="M2296.58,-1170.71C2321.34,-1163.1 2361.41,-1150.77 2388.38,-1142.48"/>
<polygon fill="blue" stroke="blue" points="2389.08,-1145.93 2397.61,-1139.65 2387.02,-1139.24 2389.08,-1145.93"/>
</g>
<!-- Spa Francorchamps -->
<g id="node32" class="node">
<title>Spa Francorchamps</title>
<text text-anchor="middle" x="1784.9" y="-1272.96" font-family="Times,serif" font-size="14.00">Spa Francorchamps</text>
</g>
<!-- Spa Francorchamps&#45;&gt;Nürburg -->
<g id="edge2" class="edge">
<title>Spa Francorchamps&#45;&gt;Nürburg</title>
<path fill="none" stroke="blue" d="M1798.74,-1277.31C1798.77,-1277.31 1798.79,-1277.3 1798.81,-1277.3"/>
<polygon fill="blue" stroke="blue" points="1787.78,-1282 1797.35,-1277.46 1787.04,-1275.04 1787.78,-1282"/>
</g>
<!-- Spielberg&#45;&gt;Budapest -->
<g id="edge13" class="edge">
<title>Spielberg&#45;&gt;Budapest</title>
<path fill="none" stroke="blue" d="M1951.68,-1235.72C1951.73,-1235.72 1951.78,-1235.73 1951.83,-1235.73"/>
<polygon fill="blue" stroke="blue" points="1940.23,-1238.3 1950.48,-1235.62 1940.79,-1231.33 1940.23,-1238.3"/>
</g>
<!-- Suzuka&#45;&gt;Shanghai -->
<g id="edge29" class="edge">
<title>Suzuka&#45;&gt;Shanghai</title>
<path fill="none" stroke="blue" d="M3638.41,-1048.15C3601.11,-1039.61 3532.81,-1023.99 3488.04,-1013.74"/>
<polygon fill="blue" stroke="blue" points="3488.92,-1010.35 3478.39,-1011.53 3487.36,-1017.18 3488.92,-1010.35"/>
</g>
<!-- Zandvoort -->
<g id="node35" class="node">
<title>Zandvoort</title>
<text text-anchor="middle" x="1764.31" y="-1301.08" font-family="Times,serif" font-size="14.00">Zandvoort</text>
</g>
<!-- Zandvoort&#45;&gt;Spa Francorchamps -->
<g id="edge1" class="edge">
<title>Zandvoort&#45;&gt;Spa Francorchamps</title>
<path fill="none" stroke="blue" d="M1769.72,-1299.49C1770.77,-1298.06 1771.91,-1296.51 1773.07,-1294.92"/>
<polygon fill="blue" stroke="blue" points="1775.62,-1297.36 1778.7,-1287.22 1769.97,-1293.23 1775.62,-1297.36"/>
</g>
</g>
</svg>
