<svg version="1.1" xmlns="http://www.w3.org/2000/svg" viewBox="0 0 497.3333740234375 152.66665649414062" width="497.3333740234375" height="152.66665649414062" filter="invert(93%) hue-rotate(180deg)" class="excalidraw-svg">
  <!-- svg-source:excalidraw -->
  
  <defs>
    <style class="style-fonts">
      
    </style>
    
  </defs>
  <rect x="0" y="0" width="497.3333740234375" height="152.66665649414062" fill="#ffffff"></rect><g transform="translate(10 116.66665649414062) rotate(0 10.666671752929688 -15.333328247070312)" stroke="none"><path fill="#1e1e1e" d="M -1.13,-0.56 Q -1.13,-0.56 -0.89,-1.40 -0.66,-2.24 0.04,-3.88 0.75,-5.52 1.62,-7.74 2.49,-9.95 3.82,-13.39 5.15,-16.83 6.30,-19.48 7.46,-22.13 8.54,-24.24 9.63,-26.36 10.95,-28.04 12.28,-29.73 13.98,-29.70 15.67,-29.67 16.52,-28.36 17.36,-27.05 18.03,-24.71 18.70,-22.37 19.36,-19.68 20.02,-16.99 20.51,-13.88 20.99,-10.76 21.35,-7.76 21.70,-4.76 21.73,-4.66 21.76,-4.56 21.75,-4.45 21.74,-4.35 21.70,-4.25 21.66,-4.15 21.59,-4.07 21.52,-3.99 21.43,-3.94 21.34,-3.88 21.24,-3.86 21.13,-3.84 21.03,-3.85 20.92,-3.86 20.83,-3.91 20.73,-3.96 20.65,-4.03 20.58,-4.10 20.53,-4.20 20.48,-4.29 20.46,-4.40 20.45,-4.50 20.47,-4.61 20.48,-4.71 20.53,-4.80 20.59,-4.90 20.66,-4.97 20.74,-5.04 20.84,-5.09 20.94,-5.13 21.04,-5.14 21.15,-5.15 21.25,-5.13 21.35,-5.10 21.44,-5.05 21.53,-4.99 21.60,-4.91 21.67,-4.83 21.71,-4.73 21.75,-4.63 21.75,-4.52 21.76,-4.42 21.73,-4.31 21.70,-4.21 21.64,-4.12 21.58,-4.04 21.49,-3.97 21.40,-3.91 21.30,-3.88 21.20,-3.85 21.10,-3.85 20.99,-3.85 20.89,-3.88 20.79,-3.92 20.71,-3.98 20.62,-4.05 20.56,-4.14 20.50,-4.23 20.50,-4.23 20.50,-4.23 19.06,-7.23 17.62,-10.24 17.18,-13.22 16.73,-16.20 16.11,-18.84 15.48,-21.48 14.92,-23.55 14.36,-25.62 14.19,-26.46 14.01,-27.29 13.29,-26.07 12.56,-24.85 11.52,-22.83 10.48,-20.80 9.35,-18.22 8.22,-15.64 6.88,-12.19 5.54,-8.74 4.63,-6.48 3.72,-4.21 2.95,-2.51 2.19,-0.81 1.66,-0.12 1.13,0.56 1.04,0.69 0.96,0.81 0.85,0.92 0.73,1.02 0.60,1.09 0.47,1.17 0.32,1.21 0.17,1.25 0.02,1.25 -0.12,1.25 -0.27,1.22 -0.42,1.19 -0.56,1.12 -0.69,1.05 -0.81,0.95 -0.92,0.85 -1.01,0.73 -1.10,0.60 -1.16,0.46 -1.22,0.32 -1.24,0.17 -1.26,0.02 -1.24,-0.12 -1.23,-0.27 -1.18,-0.42 -1.13,-0.56 -1.13,-0.56 L -1.13,-0.56 Z"></path></g><g transform="translate(16.66668701171875 102.66665649414062) rotate(0 6.3333282470703125 0)" stroke="none"><path fill="#1e1e1e" d="M 0.30,-1.20 Q 0.30,-1.20 1.10,-1.15 1.90,-1.10 2.51,-1.05 3.11,-1.00 4.19,-1.17 5.27,-1.34 6.73,-1.59 8.19,-1.85 10.07,-1.27 11.95,-0.70 12.05,-0.68 12.15,-0.65 12.24,-0.60 12.33,-0.54 12.40,-0.46 12.47,-0.38 12.51,-0.28 12.54,-0.18 12.55,-0.07 12.55,0.02 12.52,0.13 12.49,0.23 12.43,0.31 12.37,0.40 12.29,0.46 12.20,0.53 12.10,0.56 12.00,0.59 11.89,0.59 11.79,0.59 11.69,0.55 11.59,0.52 11.50,0.45 11.42,0.39 11.36,0.30 11.30,0.21 11.27,0.11 11.25,0.01 11.26,-0.09 11.26,-0.20 11.30,-0.29 11.34,-0.39 11.41,-0.47 11.48,-0.55 11.58,-0.61 11.67,-0.66 11.77,-0.68 11.87,-0.70 11.98,-0.69 12.09,-0.68 12.18,-0.63 12.28,-0.58 12.35,-0.51 12.43,-0.44 12.48,-0.34 12.53,-0.25 12.54,-0.14 12.56,-0.04 12.54,0.06 12.52,0.16 12.47,0.25 12.42,0.35 12.34,0.42 12.26,0.49 12.17,0.54 12.07,0.58 11.96,0.59 11.86,0.60 11.86,0.60 11.86,0.60 10.29,0.94 8.71,1.28 7.19,1.54 5.66,1.80 4.22,1.95 2.78,2.09 1.97,1.98 1.16,1.87 0.43,1.53 -0.30,1.20 -0.44,1.15 -0.58,1.09 -0.70,1.01 -0.82,0.92 -0.92,0.81 -1.02,0.70 -1.09,0.56 -1.16,0.43 -1.19,0.29 -1.23,0.14 -1.23,-0.00 -1.23,-0.15 -1.19,-0.29 -1.15,-0.44 -1.08,-0.57 -1.01,-0.70 -0.92,-0.82 -0.82,-0.93 -0.69,-1.01 -0.57,-1.10 -0.43,-1.15 -0.29,-1.20 -0.14,-1.22 0.00,-1.24 0.15,-1.22 0.30,-1.20 0.30,-1.20 L 0.30,-1.20 Z"></path></g><g transform="translate(61.333343505859375 18.666656494140625) rotate(0 3.6666717529296875 13.666671752929688)" stroke="none"><path fill="#1e1e1e" d="M 1.22,0.27 Q 1.22,0.27 1.05,2.04 0.87,3.81 0.33,5.92 -0.21,8.03 -0.61,10.92 -1.01,13.82 -1.38,16.25 -1.75,18.68 -1.90,20.23 -2.05,21.79 -1.93,22.88 -1.80,23.97 -1.75,25.12 -1.69,26.27 -1.66,26.95 -1.64,27.62 -2.39,27.32 -3.15,27.02 -2.68,26.73 -2.21,26.43 -1.54,26.38 -0.88,26.32 -0.24,26.14 0.38,25.96 1.35,25.54 2.32,25.12 3.31,24.13 4.30,23.13 4.86,22.07 5.42,21.02 5.64,19.96 5.86,18.90 5.60,17.32 5.34,15.74 4.78,14.86 4.21,13.97 3.54,13.50 2.88,13.02 2.38,12.50 1.89,11.97 2.63,11.64 3.37,11.30 4.28,10.58 5.19,9.85 6.31,8.48 7.44,7.11 8.09,6.01 8.75,4.90 8.98,4.25 9.22,3.59 8.97,3.09 8.73,2.59 8.05,1.93 7.37,1.27 6.47,0.84 5.57,0.40 4.27,0.21 2.96,0.03 2.28,0.44 1.60,0.86 0.50,1.90 -0.58,2.94 -0.62,3.04 -0.66,3.14 -0.72,3.22 -0.79,3.30 -0.88,3.36 -0.97,3.42 -1.07,3.44 -1.18,3.47 -1.28,3.46 -1.39,3.45 -1.49,3.40 -1.58,3.36 -1.66,3.29 -1.74,3.22 -1.79,3.13 -1.84,3.03 -1.86,2.93 -1.88,2.82 -1.87,2.72 -1.85,2.61 -1.80,2.52 -1.75,2.42 -1.68,2.35 -1.60,2.27 -1.51,2.23 -1.41,2.18 -1.31,2.17 -1.20,2.16 -1.10,2.18 -0.99,2.20 -0.90,2.25 -0.81,2.30 -0.74,2.38 -0.67,2.46 -0.63,2.56 -0.59,2.66 -0.58,2.77 -0.57,2.87 -0.60,2.97 -0.62,3.08 -0.68,3.17 -0.74,3.26 -0.82,3.32 -0.91,3.39 -1.01,3.42 -1.11,3.46 -1.21,3.46 -1.32,3.46 -1.42,3.43 -1.52,3.40 -1.61,3.33 -1.69,3.27 -1.75,3.18 -1.82,3.10 -1.85,3.00 -1.88,2.89 -1.87,2.79 -1.87,2.68 -1.87,2.68 -1.87,2.68 -0.81,0.22 0.25,-2.23 1.72,-2.75 3.20,-3.26 5.15,-2.93 7.11,-2.60 8.49,-1.82 9.87,-1.04 10.93,0.26 12.00,1.56 12.26,2.98 12.51,4.39 12.12,5.54 11.73,6.69 10.91,8.02 10.09,9.35 8.65,11.01 7.21,12.67 5.69,13.66 4.17,14.65 2.81,14.74 1.44,14.83 0.61,13.76 -0.22,12.69 0.41,11.43 1.05,10.18 1.93,9.90 2.81,9.61 3.91,9.99 5.01,10.36 6.07,11.28 7.13,12.20 7.93,13.69 8.73,15.19 8.98,17.40 9.23,19.61 8.84,21.15 8.45,22.69 7.57,24.16 6.70,25.62 5.22,26.94 3.74,28.26 2.50,28.79 1.26,29.31 -0.09,29.51 -1.46,29.72 -2.50,29.98 -3.54,30.24 -4.31,28.99 -5.08,27.74 -5.10,27.09 -5.12,26.44 -5.17,25.37 -5.22,24.31 -5.34,22.88 -5.47,21.46 -5.30,19.81 -5.14,18.16 -4.77,15.75 -4.40,13.33 -3.95,10.25 -3.50,7.16 -2.95,5.12 -2.41,3.08 -1.81,1.40 -1.22,-0.27 -1.17,-0.41 -1.12,-0.55 -1.04,-0.68 -0.95,-0.81 -0.84,-0.91 -0.73,-1.01 -0.60,-1.08 -0.47,-1.16 -0.32,-1.20 -0.17,-1.24 -0.02,-1.24 0.12,-1.24 0.27,-1.21 0.41,-1.18 0.55,-1.11 0.68,-1.04 0.80,-0.95 0.91,-0.85 1.00,-0.73 1.09,-0.60 1.15,-0.46 1.21,-0.32 1.23,-0.17 1.25,-0.02 1.23,0.12 1.22,0.27 1.22,0.27 L 1.22,0.27 Z"></path></g><g transform="translate(129.3333740234375 24) rotate(0 -0.333343505859375 -0.333343505859375)" stroke="none"><path fill="#1e1e1e" d="M -0.84,0.08 Q -0.84,0.08 -0.90,-0.00 -0.97,-0.09 -1.00,-0.19 -1.03,-0.29 -1.03,-0.40 -1.02,-0.50 -0.99,-0.60 -0.95,-0.70 -0.88,-0.78 -0.82,-0.87 -0.73,-0.92 -0.64,-0.98 -0.53,-1.01 -0.43,-1.03 -0.33,-1.02 -0.22,-1.02 -0.12,-0.97 -0.02,-0.93 0.04,-0.86 0.12,-0.79 0.18,-0.70 0.23,-0.60 0.25,-0.50 0.27,-0.40 0.25,-0.29 0.24,-0.19 0.19,-0.09 0.14,-0.00 0.07,0.07 -0.00,0.15 -0.09,0.19 -0.19,0.24 -0.29,0.25 -0.40,0.27 -0.50,0.25 -0.60,0.23 -0.70,0.18 -0.79,0.12 -0.86,0.04 -0.93,-0.02 -0.97,-0.12 -1.02,-0.22 -1.02,-0.33 -1.03,-0.43 -1.01,-0.53 -0.98,-0.64 -0.92,-0.73 -0.87,-0.82 -0.78,-0.88 -0.70,-0.95 -0.60,-0.99 -0.50,-1.02 -0.40,-1.03 -0.29,-1.03 -0.19,-1.00 -0.09,-0.97 -0.00,-0.90 0.08,-0.84 0.08,-0.84 0.08,-0.84 0.18,-0.82 0.28,-0.80 0.37,-0.75 0.46,-0.71 0.54,-0.64 0.62,-0.58 0.68,-0.49 0.74,-0.41 0.78,-0.31 0.82,-0.22 0.83,-0.12 0.85,-0.02 0.84,0.08 0.83,0.18 0.79,0.27 0.76,0.37 0.70,0.46 0.65,0.54 0.57,0.61 0.50,0.68 0.41,0.73 0.32,0.78 0.22,0.81 0.12,0.84 0.02,0.84 -0.08,0.84 -0.46,0.46 L -0.84,0.08 Z"></path></g><g transform="translate(120.66668701171875 40.666656494140625) rotate(0 6.666656494140625 1.6666717529296875)" stroke="none"><path fill="#1e1e1e" d="M 1.03,-1.54 Q 1.03,-1.54 2.18,-0.79 3.34,-0.03 4.28,0.40 5.22,0.85 6.52,1.01 7.81,1.17 9.96,1.08 12.11,1.00 12.22,0.99 12.32,0.97 12.43,1.00 12.53,1.02 12.62,1.07 12.72,1.12 12.79,1.20 12.86,1.28 12.90,1.38 12.94,1.48 12.94,1.59 12.95,1.69 12.93,1.79 12.90,1.90 12.84,1.99 12.78,2.08 12.70,2.14 12.61,2.21 12.51,2.24 12.41,2.28 12.31,2.28 12.20,2.28 12.10,2.25 12.00,2.22 11.91,2.15 11.83,2.09 11.77,2.00 11.71,1.92 11.68,1.81 11.65,1.71 11.65,1.61 11.66,1.50 11.69,1.40 11.73,1.30 11.80,1.22 11.87,1.14 11.96,1.08 12.05,1.02 12.15,1.00 12.25,0.98 12.36,0.99 12.46,1.00 12.56,1.04 12.66,1.08 12.74,1.15 12.82,1.23 12.87,1.32 12.92,1.41 12.94,1.52 12.96,1.62 12.94,1.73 12.92,1.83 12.88,1.93 12.83,2.02 12.75,2.09 12.67,2.17 12.58,2.21 12.48,2.26 12.48,2.26 12.48,2.26 9.96,3.55 7.44,4.84 5.53,4.56 3.62,4.27 2.44,3.69 1.25,3.10 0.11,2.32 -1.03,1.54 -1.20,1.40 -1.37,1.25 -1.50,1.07 -1.63,0.89 -1.71,0.68 -1.79,0.47 -1.82,0.25 -1.85,0.02 -1.83,-0.19 -1.81,-0.41 -1.73,-0.62 -1.65,-0.83 -1.53,-1.02 -1.41,-1.21 -1.24,-1.36 -1.08,-1.51 -0.88,-1.62 -0.68,-1.72 -0.47,-1.78 -0.25,-1.84 -0.02,-1.84 0.19,-1.84 0.41,-1.79 0.63,-1.74 0.83,-1.64 1.03,-1.54 1.03,-1.54 L 1.03,-1.54 Z"></path></g><g transform="translate(130.66668701171875 20) rotate(0 -6.0000152587890625 12.333328247070312)" stroke="none"><path fill="#1e1e1e" d="M -0.33,0.99 Q -0.33,0.99 -0.98,1.00 -1.63,1.02 -2.22,0.70 -2.82,0.37 -3.40,0.37 -3.98,0.36 -4.55,0.54 -5.12,0.72 -5.95,0.96 -6.77,1.20 -7.23,1.72 -7.69,2.24 -8.22,3.29 -8.74,4.35 -9.16,5.53 -9.58,6.72 -9.94,8.13 -10.30,9.55 -10.24,11.10 -10.18,12.66 -9.97,14.48 -9.77,16.29 -9.17,17.81 -8.56,19.33 -7.32,20.55 -6.08,21.77 -4.98,22.44 -3.88,23.12 -2.09,23.57 -0.31,24.02 -0.20,24.04 -0.10,24.05 -0.00,24.10 0.08,24.15 0.15,24.22 0.23,24.30 0.28,24.40 0.32,24.49 0.34,24.60 0.35,24.70 0.33,24.81 0.31,24.91 0.25,25.00 0.20,25.10 0.12,25.17 0.04,25.24 -0.05,25.28 -0.14,25.32 -0.25,25.33 -0.36,25.33 -0.46,25.31 -0.56,25.28 -0.65,25.22 -0.74,25.16 -0.81,25.08 -0.87,25.00 -0.91,24.90 -0.94,24.80 -0.95,24.69 -0.95,24.58 -0.92,24.48 -0.88,24.38 -0.82,24.30 -0.76,24.21 -0.67,24.15 -0.58,24.09 -0.48,24.06 -0.38,24.03 -0.27,24.03 -0.17,24.04 -0.07,24.07 0.02,24.11 0.10,24.18 0.19,24.25 0.24,24.34 0.30,24.43 0.32,24.53 0.35,24.63 0.34,24.74 0.33,24.84 0.29,24.94 0.24,25.04 0.17,25.12 0.10,25.19 0.01,25.25 -0.08,25.30 -0.18,25.32 -0.29,25.34 -0.29,25.34 -0.29,25.34 -2.90,25.87 -5.51,26.40 -7.16,25.40 -8.81,24.39 -10.43,22.57 -12.04,20.75 -12.76,18.73 -13.48,16.71 -13.68,14.71 -13.87,12.70 -13.85,10.67 -13.83,8.64 -13.39,7.04 -12.95,5.44 -12.38,4.02 -11.81,2.61 -10.91,1.16 -10.01,-0.27 -8.92,-1.12 -7.84,-1.98 -6.83,-2.27 -5.82,-2.55 -4.78,-2.72 -3.73,-2.88 -3.02,-2.77 -2.32,-2.65 -1.49,-2.22 -0.66,-1.79 -0.16,-1.39 0.33,-0.99 0.44,-0.93 0.55,-0.88 0.65,-0.80 0.75,-0.72 0.82,-0.62 0.90,-0.52 0.95,-0.40 1.00,-0.29 1.02,-0.16 1.04,-0.04 1.03,0.08 1.02,0.20 0.98,0.32 0.94,0.44 0.87,0.55 0.80,0.66 0.71,0.74 0.62,0.83 0.51,0.89 0.40,0.96 0.28,0.99 0.16,1.03 0.04,1.03 -0.08,1.04 -0.20,1.01 -0.33,0.99 -0.33,0.99 L -0.33,0.99 Z"></path></g><g transform="translate(168.66668701171875 82.66665649414062) rotate(0 5.333343505859375 14.333328247070312)" stroke="none"><path fill="#1e1e1e" d="M 1.21,0 Q 1.21,0 1.48,1.15 1.75,2.3 1.80,4.70 1.85,7.11 2.05,9.20 2.25,11.29 2.15,13.49 2.05,15.70 2.01,17.51 1.97,19.32 1.95,21.05 1.93,22.78 1.93,24.09 1.92,25.40 1.92,26.15 1.92,26.89 1.92,27.43 1.91,27.96 1.89,28.19 1.86,28.42 1.78,28.64 1.69,28.85 1.56,29.04 1.43,29.23 1.25,29.39 1.08,29.54 0.88,29.65 0.67,29.75 0.45,29.81 0.22,29.86 -0.00,29.86 -0.23,29.86 -0.46,29.81 -0.68,29.75 -0.88,29.64 -1.09,29.53 -1.26,29.38 -1.43,29.23 -1.57,29.03 -1.70,28.84 -1.78,28.63 -1.86,28.41 -1.89,28.18 -1.91,27.95 -1.53,27.21 -1.16,26.48 -0.73,26.07 -0.31,25.66 0.44,25.42 1.19,25.19 2.12,24.74 3.05,24.30 4.12,23.59 5.19,22.88 6.11,21.92 7.02,20.96 7.90,19.18 8.77,17.41 9.35,15.73 9.93,14.05 10.17,12.50 10.41,10.95 10.15,9.34 9.89,7.73 9.29,6.41 8.69,5.09 7.87,4.33 7.04,3.57 5.80,3.33 4.56,3.08 3.55,3.12 2.54,3.15 1.53,3.46 0.52,3.77 -0.35,4.48 -1.23,5.18 -1.29,5.27 -1.34,5.36 -1.42,5.43 -1.50,5.50 -1.60,5.54 -1.70,5.58 -1.80,5.59 -1.91,5.60 -2.01,5.57 -2.11,5.54 -2.20,5.48 -2.29,5.42 -2.36,5.34 -2.42,5.26 -2.46,5.16 -2.49,5.06 -2.50,4.95 -2.50,4.84 -2.46,4.74 -2.43,4.64 -2.37,4.56 -2.31,4.47 -2.22,4.41 -2.13,4.35 -2.03,4.32 -1.93,4.29 -1.82,4.29 -1.72,4.30 -1.62,4.34 -1.52,4.37 -1.44,4.44 -1.35,4.51 -1.30,4.60 -1.24,4.69 -1.22,4.79 -1.19,4.90 -1.20,5.00 -1.21,5.11 -1.26,5.21 -1.30,5.30 -1.37,5.38 -1.44,5.46 -1.54,5.51 -1.63,5.56 -1.73,5.58 -1.84,5.60 -1.94,5.58 -2.05,5.57 -2.14,5.52 -2.24,5.47 -2.31,5.39 -2.39,5.32 -2.43,5.22 -2.48,5.13 -2.49,5.02 -2.50,4.92 -2.48,4.81 -2.46,4.71 -2.46,4.71 -2.46,4.71 -1.57,2.56 -0.68,0.41 0.90,-0.03 2.49,-0.49 4.00,-0.46 5.50,-0.43 7.46,0.21 9.42,0.85 10.71,2.19 12.01,3.53 12.78,5.35 13.56,7.17 13.84,9.32 14.12,11.48 13.82,13.38 13.52,15.29 12.85,17.22 12.17,19.16 10.97,21.38 9.78,23.60 8.54,24.84 7.30,26.07 6.01,26.91 4.71,27.75 3.68,28.25 2.65,28.74 1.91,28.73 1.16,28.72 1.54,28.34 1.91,27.96 1.89,28.19 1.86,28.42 1.78,28.64 1.69,28.85 1.56,29.04 1.43,29.23 1.26,29.39 1.08,29.54 0.88,29.65 0.67,29.75 0.45,29.81 0.22,29.86 -0.00,29.86 -0.23,29.86 -0.46,29.81 -0.68,29.75 -0.88,29.64 -1.09,29.53 -1.26,29.38 -1.43,29.23 -1.57,29.04 -1.70,28.84 -1.78,28.63 -1.86,28.41 -1.89,28.18 -1.91,27.95 -1.91,27.41 -1.91,26.88 -1.90,26.12 -1.90,25.37 -1.89,24.05 -1.88,22.73 -1.85,20.98 -1.83,19.23 -1.77,17.36 -1.72,15.50 -1.60,13.55 -1.49,11.61 -1.67,9.36 -1.85,7.11 -1.80,4.70 -1.75,2.3 -1.48,1.15 -1.21,0 -1.20,-0.14 -1.18,-0.29 -1.13,-0.42 -1.07,-0.56 -0.99,-0.68 -0.91,-0.80 -0.80,-0.90 -0.69,-1.00 -0.56,-1.07 -0.43,-1.13 -0.28,-1.17 -0.14,-1.20 0.00,-1.20 0.14,-1.20 0.28,-1.17 0.43,-1.13 0.56,-1.07 0.69,-1.00 0.80,-0.90 0.91,-0.80 0.99,-0.68 1.07,-0.56 1.13,-0.42 1.18,-0.29 1.20,-0.14 1.21,0.00 1.21,0.00 L 1.21,0 Z"></path></g><g transform="translate(35.333343505859375 83.33331298828125) rotate(0 4.333343505859375 -8.999984741210938)" stroke="none"><path fill="#1e1e1e" d="M 1.04,0 Q 1.04,0 1.32,0.38 1.61,0.76 1.59,0.95 1.56,1.15 1.49,1.33 1.42,1.51 1.31,1.67 1.20,1.83 1.06,1.96 0.91,2.09 0.74,2.18 0.57,2.27 0.38,2.32 0.19,2.36 -0.00,2.36 -0.19,2.36 -0.38,2.32 -0.57,2.27 -0.74,2.18 -0.91,2.09 -1.06,1.96 -1.20,1.83 -1.31,1.67 -1.42,1.51 -1.49,1.33 -1.56,1.15 -1.59,0.95 -1.61,0.76 -0.92,0.00 -0.23,-0.76 0.06,-1.77 0.37,-2.78 0.93,-4.07 1.49,-5.37 2.12,-6.89 2.74,-8.41 3.58,-10.41 4.43,-12.42 4.96,-13.81 5.50,-15.21 5.94,-16.23 6.38,-17.25 6.91,-17.82 7.45,-18.39 7.49,-18.46 7.53,-18.52 7.58,-18.58 7.64,-18.64 7.70,-18.68 7.77,-18.72 7.85,-18.75 7.92,-18.77 8.00,-18.78 8.08,-18.78 8.16,-18.77 8.24,-18.76 8.31,-18.73 8.38,-18.70 8.44,-18.65 8.51,-18.60 8.56,-18.54 8.61,-18.48 8.64,-18.40 8.67,-18.33 8.69,-18.26 8.70,-18.18 8.70,-18.10 8.70,-18.02 8.68,-17.94 8.65,-17.87 8.60,-17.78 8.54,-17.70 8.46,-17.63 8.38,-17.56 8.28,-17.52 8.18,-17.48 8.08,-17.48 7.97,-17.48 7.87,-17.51 7.77,-17.54 7.68,-17.60 7.59,-17.66 7.53,-17.74 7.47,-17.83 7.43,-17.93 7.40,-18.03 7.40,-18.14 7.40,-18.24 7.44,-18.34 7.47,-18.44 7.54,-18.53 7.60,-18.61 7.69,-18.67 7.78,-18.73 7.88,-18.75 7.99,-18.78 8.09,-18.77 8.20,-18.77 8.30,-18.73 8.40,-18.69 8.48,-18.62 8.56,-18.55 8.61,-18.45 8.66,-18.36 8.68,-18.26 8.71,-18.15 8.69,-18.05 8.68,-17.94 8.63,-17.85 8.59,-17.75 8.51,-17.68 8.44,-17.60 8.35,-17.55 8.25,-17.50 8.15,-17.49 8.04,-17.47 7.94,-17.49 7.83,-17.51 7.74,-17.56 7.65,-17.61 7.57,-17.69 7.50,-17.77 7.46,-17.86 7.41,-17.96 7.40,-18.07 7.39,-18.17 7.42,-18.28 7.44,-18.38 7.45,-18.38 7.45,-18.39 7.49,-18.46 7.53,-18.52 7.58,-18.58 7.64,-18.64 7.70,-18.68 7.77,-18.72 7.85,-18.75 7.92,-18.77 8.00,-18.78 8.08,-18.78 8.16,-18.77 8.24,-18.76 8.31,-18.73 8.38,-18.70 8.44,-18.65 8.51,-18.60 8.56,-18.54 8.61,-18.48 8.64,-18.40 8.67,-18.33 8.69,-18.26 8.70,-18.18 8.70,-18.10 8.70,-18.02 8.68,-17.94 8.65,-17.87 9.17,-16.84 9.69,-15.82 9.27,-14.87 8.86,-13.91 8.29,-12.46 7.73,-11.01 6.88,-9.03 6.04,-7.04 5.39,-5.49 4.74,-3.94 4.11,-2.53 3.48,-1.12 2.92,-0.10 2.36,0.90 1.68,1.54 1.00,2.18 1.31,1.47 1.61,0.76 1.59,0.95 1.56,1.15 1.49,1.33 1.42,1.51 1.31,1.67 1.20,1.83 1.06,1.96 0.91,2.09 0.74,2.18 0.57,2.27 0.38,2.32 0.19,2.36 0.00,2.36 -0.19,2.36 -0.38,2.32 -0.57,2.27 -0.74,2.18 -0.91,2.09 -1.06,1.96 -1.20,1.83 -1.31,1.67 -1.42,1.51 -1.49,1.33 -1.56,1.15 -1.59,0.95 -1.61,0.76 -1.32,0.38 -1.04,0 -1.02,-0.12 -1.01,-0.24 -0.96,-0.36 -0.92,-0.48 -0.85,-0.58 -0.77,-0.69 -0.68,-0.77 -0.59,-0.85 -0.48,-0.91 -0.36,-0.97 -0.24,-1.00 -0.12,-1.03 0.00,-1.03 0.12,-1.03 0.24,-1.00 0.36,-0.97 0.48,-0.91 0.59,-0.85 0.68,-0.77 0.77,-0.69 0.85,-0.58 0.92,-0.48 0.96,-0.36 1.01,-0.24 1.02,-0.12 1.04,0.00 1.04,0.00 L 1.04,0 Z"></path></g><g transform="translate(39.333343505859375 58) rotate(0 5.333343505859375 2)" stroke="none"><path fill="#1e1e1e" d="M -0.78,-0.78 Q -0.78,-0.78 0.15,-2.14 1.08,-3.51 1.95,-4.38 2.82,-5.26 3.74,-5.93 4.66,-6.60 5.83,-6.78 7.00,-6.96 7.84,-6.55 8.67,-6.14 9.09,-5.32 9.52,-4.50 9.87,-3.76 10.22,-3.02 10.18,-2.39 10.14,-1.76 10.78,-1.43 11.42,-1.10 11.56,0.09 11.71,1.29 11.91,2.31 12.11,3.32 12.21,4.67 12.32,6.02 12.10,7.48 11.89,8.94 11.90,9.04 11.92,9.14 11.91,9.25 11.89,9.36 11.84,9.45 11.79,9.54 11.72,9.62 11.64,9.69 11.55,9.74 11.45,9.78 11.35,9.80 11.24,9.81 11.14,9.79 11.03,9.77 10.94,9.71 10.85,9.66 10.78,9.58 10.71,9.50 10.67,9.40 10.63,9.30 10.62,9.20 10.61,9.09 10.64,8.99 10.67,8.89 10.73,8.80 10.78,8.71 10.87,8.64 10.95,8.58 11.05,8.54 11.15,8.51 11.26,8.51 11.36,8.50 11.47,8.54 11.57,8.57 11.65,8.63 11.74,8.70 11.80,8.78 11.86,8.87 11.89,8.97 11.92,9.07 11.91,9.18 11.91,9.29 11.87,9.39 11.83,9.48 11.77,9.57 11.70,9.65 11.61,9.70 11.52,9.76 11.41,9.78 11.31,9.81 11.21,9.80 11.10,9.79 11.00,9.75 10.91,9.70 10.83,9.63 10.75,9.56 10.70,9.46 10.65,9.37 10.65,9.37 10.65,9.37 9.69,7.83 8.74,6.28 8.66,5.13 8.58,3.99 8.31,2.29 8.04,0.59 7.58,0.01 7.12,-0.56 6.95,-1.42 6.78,-2.29 6.61,-3.01 6.43,-3.73 5.84,-3.27 5.25,-2.82 4.38,-1.95 3.51,-1.08 2.14,-0.15 0.78,0.78 0.67,0.86 0.57,0.94 0.45,1.00 0.32,1.05 0.19,1.08 0.06,1.10 -0.06,1.09 -0.19,1.09 -0.32,1.05 -0.45,1.01 -0.56,0.94 -0.68,0.87 -0.77,0.77 -0.87,0.68 -0.94,0.56 -1.01,0.45 -1.05,0.32 -1.09,0.19 -1.09,0.06 -1.10,-0.06 -1.08,-0.19 -1.05,-0.32 -1.00,-0.45 -0.94,-0.57 -0.86,-0.67 -0.78,-0.78 -0.78,-0.78 L -0.78,-0.78 Z"></path></g><g transform="translate(84.66668701171875 26.666656494140625) rotate(0 10.66668701171875 0.6666717529296875)" stroke="none"><path fill="#1e1e1e" d="M 0.27,-1.08 Q 0.27,-1.08 1.09,-1.11 1.91,-1.14 3.07,-1.07 4.22,-1.01 5.11,-1.01 6.01,-1.01 7.15,-1.01 8.30,-1.02 9.51,-0.81 10.72,-0.61 11.85,-0.55 12.97,-0.48 14.04,-0.45 15.10,-0.41 16.12,-0.40 17.15,-0.38 19.04,0.14 20.94,0.67 21.04,0.69 21.15,0.71 21.24,0.76 21.34,0.81 21.41,0.88 21.48,0.96 21.53,1.06 21.57,1.15 21.58,1.26 21.59,1.37 21.57,1.47 21.55,1.57 21.49,1.66 21.44,1.75 21.35,1.82 21.27,1.89 21.17,1.93 21.07,1.97 20.97,1.97 20.86,1.98 20.76,1.95 20.66,1.92 20.57,1.86 20.48,1.80 20.42,1.72 20.35,1.63 20.32,1.53 20.29,1.43 20.29,1.32 20.29,1.22 20.32,1.12 20.36,1.02 20.42,0.93 20.49,0.85 20.58,0.79 20.66,0.73 20.77,0.70 20.87,0.67 20.97,0.68 21.08,0.69 21.18,0.73 21.28,0.77 21.36,0.83 21.44,0.90 21.49,1.00 21.55,1.09 21.57,1.19 21.59,1.29 21.58,1.40 21.57,1.51 21.52,1.60 21.48,1.70 21.40,1.77 21.33,1.85 21.24,1.90 21.14,1.95 21.04,1.97 20.93,1.98 20.93,1.98 20.93,1.98 19.02,2.50 17.10,3.01 16.05,2.99 14.99,2.98 13.87,2.94 12.74,2.90 11.43,2.80 10.12,2.71 9.20,2.52 8.27,2.33 7.11,2.32 5.95,2.30 5.02,2.27 4.08,2.24 3.20,2.19 2.31,2.13 1.73,2.01 1.15,1.90 0.44,1.49 -0.27,1.08 -0.39,1.03 -0.52,0.98 -0.63,0.90 -0.74,0.83 -0.82,0.73 -0.91,0.62 -0.98,0.51 -1.04,0.39 -1.07,0.26 -1.10,0.13 -1.10,-0.00 -1.10,-0.13 -1.07,-0.26 -1.03,-0.39 -0.97,-0.51 -0.91,-0.63 -0.82,-0.73 -0.73,-0.83 -0.62,-0.91 -0.51,-0.98 -0.38,-1.03 -0.26,-1.08 -0.12,-1.09 0.00,-1.11 0.13,-1.09 0.27,-1.08 0.27,-1.08 L 0.27,-1.08 Z"></path></g><g transform="translate(102.66671752929688 16) rotate(0 4.333282470703125 10.333328247070312)" stroke="none"><path fill="#1e1e1e" d="M 0.52,-1.04 Q 0.52,-1.04 1.39,-0.83 2.26,-0.62 3.19,0.25 4.12,1.13 4.75,2.17 5.38,3.21 5.95,4.13 6.53,5.04 7.19,6.25 7.86,7.47 8.28,8.09 8.70,8.71 9.12,9.44 9.54,10.16 10.00,10.95 10.45,11.74 10.55,11.92 10.65,12.09 10.71,12.29 10.76,12.48 10.77,12.68 10.78,12.89 10.74,13.09 10.69,13.28 10.61,13.47 10.52,13.65 10.39,13.80 10.26,13.96 10.10,14.08 9.94,14.20 9.75,14.28 9.56,14.36 9.36,14.39 9.16,14.42 8.96,14.40 8.76,14.39 8.57,14.32 8.38,14.26 8.21,14.15 8.04,14.04 7.90,13.89 7.76,13.75 7.50,14.52 7.25,15.30 6.74,15.95 6.24,16.59 5.36,17.54 4.48,18.48 3.53,19.45 2.59,20.42 1.32,21.23 0.06,22.04 -0.00,22.12 -0.06,22.20 -0.15,22.26 -0.24,22.32 -0.35,22.34 -0.45,22.37 -0.55,22.36 -0.66,22.35 -0.76,22.31 -0.86,22.27 -0.94,22.20 -1.01,22.13 -1.07,22.04 -1.12,21.94 -1.14,21.84 -1.16,21.73 -1.15,21.63 -1.13,21.52 -1.09,21.43 -1.04,21.33 -0.96,21.26 -0.89,21.18 -0.79,21.14 -0.70,21.09 -0.59,21.07 -0.49,21.06 -0.38,21.08 -0.28,21.10 -0.19,21.15 -0.09,21.20 -0.02,21.28 0.04,21.36 0.08,21.46 0.12,21.55 0.13,21.66 0.14,21.77 0.11,21.87 0.09,21.97 0.03,22.06 -0.01,22.15 -0.10,22.22 -0.18,22.29 -0.28,22.32 -0.38,22.36 -0.48,22.36 -0.59,22.37 -0.69,22.33 -0.79,22.30 -0.88,22.24 -0.97,22.18 -1.03,22.09 -1.09,22.01 -1.12,21.91 -1.15,21.81 -1.15,21.70 -1.15,21.59 -1.11,21.49 -1.08,21.39 -1.08,21.39 -1.08,21.39 -0.45,19.73 0.16,18.06 1.09,17.12 2.01,16.17 2.82,15.31 3.63,14.45 4.39,13.55 5.15,12.65 5.96,12.07 6.76,11.49 7.96,11.26 9.16,11.04 9.80,11.39 10.45,11.74 10.55,11.92 10.65,12.09 10.71,12.29 10.76,12.48 10.77,12.68 10.78,12.89 10.74,13.08 10.69,13.28 10.61,13.47 10.52,13.65 10.39,13.80 10.26,13.96 10.10,14.08 9.94,14.20 9.75,14.28 9.56,14.36 9.36,14.39 9.16,14.42 8.96,14.40 8.76,14.39 8.57,14.32 8.38,14.26 8.21,14.15 8.04,14.04 7.90,13.89 7.76,13.75 7.60,13.34 7.45,12.94 7.04,12.38 6.64,11.83 6.28,11.20 5.92,10.57 5.42,9.82 4.92,9.06 4.31,7.93 3.71,6.80 3.10,5.81 2.49,4.82 2.13,4.08 1.77,3.35 1.28,2.75 0.80,2.16 0.13,1.60 -0.52,1.04 -0.64,0.97 -0.76,0.89 -0.85,0.78 -0.95,0.68 -1.02,0.56 -1.08,0.43 -1.12,0.30 -1.16,0.16 -1.16,0.02 -1.16,-0.11 -1.13,-0.25 -1.10,-0.39 -1.04,-0.52 -0.97,-0.64 -0.88,-0.75 -0.79,-0.86 -0.68,-0.94 -0.56,-1.02 -0.43,-1.08 -0.30,-1.13 -0.16,-1.15 -0.02,-1.17 0.11,-1.15 0.25,-1.14 0.39,-1.09 0.52,-1.04 0.52,-1.04 L 0.52,-1.04 Z"></path></g><g transform="translate(144.66668701171875 52.66668701171875) rotate(0 7.33331298828125 9.666656494140625)" stroke="none"><path fill="#1e1e1e" d="M 0.80,-0.80 Q 0.80,-0.80 1.96,-0.05 3.12,0.70 4.32,1.85 5.52,3.00 6.66,4.31 7.80,5.61 8.92,7.41 10.04,9.21 11.06,10.89 12.07,12.56 12.88,13.84 13.68,15.11 14.44,16.41 15.20,17.71 15.24,17.78 15.27,17.85 15.29,17.93 15.30,18.01 15.30,18.09 15.30,18.17 15.27,18.24 15.25,18.32 15.21,18.39 15.17,18.46 15.12,18.51 15.06,18.57 15.00,18.61 14.93,18.65 14.85,18.68 14.78,18.70 14.70,18.71 14.62,18.72 14.54,18.70 14.47,18.69 14.39,18.66 14.32,18.63 14.26,18.58 14.19,18.53 14.14,18.47 14.09,18.41 14.09,18.07 14.08,17.73 14.15,17.65 14.22,17.57 14.31,17.51 14.40,17.45 14.50,17.43 14.60,17.41 14.71,17.42 14.81,17.43 14.91,17.47 15.01,17.51 15.09,17.58 15.17,17.66 15.22,17.75 15.27,17.84 15.29,17.95 15.30,18.05 15.29,18.16 15.27,18.26 15.23,18.36 15.18,18.45 15.10,18.52 15.02,18.60 14.93,18.65 14.83,18.69 14.73,18.70 14.62,18.72 14.52,18.70 14.41,18.67 14.32,18.62 14.23,18.57 14.16,18.49 14.09,18.41 14.05,18.31 14.01,18.21 14.00,18.11 13.99,18.00 14.02,17.90 14.05,17.79 14.11,17.71 14.16,17.62 14.25,17.55 14.33,17.49 14.43,17.45 14.53,17.41 14.64,17.41 14.75,17.41 14.85,17.44 14.95,17.48 15.03,17.54 15.12,17.60 15.18,17.69 15.24,17.78 15.27,17.88 15.30,17.98 15.30,18.09 15.29,18.19 15.25,17.95 15.20,17.71 15.24,17.78 15.27,17.85 15.29,17.93 15.30,18.01 15.30,18.09 15.30,18.17 15.27,18.24 15.25,18.32 15.21,18.39 15.17,18.46 15.12,18.51 15.06,18.57 15.00,18.61 14.93,18.65 14.85,18.68 14.78,18.70 14.70,18.71 14.62,18.72 14.54,18.70 14.47,18.69 14.39,18.66 14.32,18.63 14.26,18.58 14.19,18.53 14.14,18.47 14.09,18.41 12.33,17.75 10.57,17.08 9.74,15.77 8.92,14.47 7.91,12.80 6.90,11.13 5.96,9.55 5.01,7.97 4.01,6.74 3.00,5.52 1.85,4.32 0.70,3.12 -0.05,1.96 -0.80,0.80 -0.89,0.70 -0.97,0.59 -1.03,0.46 -1.09,0.34 -1.11,0.20 -1.14,0.06 -1.13,-0.06 -1.12,-0.20 -1.08,-0.33 -1.04,-0.46 -0.97,-0.58 -0.90,-0.70 -0.80,-0.80 -0.70,-0.90 -0.58,-0.97 -0.46,-1.04 -0.33,-1.08 -0.20,-1.12 -0.06,-1.13 0.06,-1.14 0.20,-1.11 0.34,-1.09 0.46,-1.03 0.59,-0.97 0.70,-0.89 0.80,-0.80 0.80,-0.80 L 0.80,-0.80 Z"></path></g><g transform="translate(150.66668701171875 70.66665649414062) rotate(0 8 -0.333343505859375)" stroke="none"><path fill="#1e1e1e" d="M 0.89,-0.89 Q 0.89,-0.89 1.57,-0.42 2.25,0.04 3.02,0.57 3.78,1.10 4.69,1.70 5.61,2.31 6.71,2.91 7.81,3.51 9.04,4.16 10.28,4.80 11.34,5.25 12.39,5.69 13.06,6.21 13.74,6.72 14.28,6.83 14.82,6.93 15.01,7.04 15.19,7.14 15.35,7.29 15.50,7.44 15.61,7.62 15.73,7.80 15.80,8.00 15.86,8.20 15.88,8.42 15.90,8.63 15.86,8.84 15.83,9.05 15.75,9.24 15.66,9.44 15.53,9.61 15.41,9.78 15.24,9.91 15.08,10.05 14.88,10.14 14.69,10.23 14.48,10.27 14.27,10.32 14.06,10.31 13.85,10.30 13.64,10.24 13.44,10.18 12.89,9.41 12.33,8.65 12.29,8.02 12.25,7.40 12.24,6.79 12.23,6.18 12.46,5.30 12.68,4.42 12.73,3.57 12.78,2.72 13.01,0.71 13.24,-1.28 13.53,-2.94 13.83,-4.60 14.58,-6.40 15.34,-8.20 15.37,-8.28 15.39,-8.35 15.43,-8.42 15.47,-8.49 15.53,-8.54 15.58,-8.60 15.65,-8.64 15.72,-8.68 15.79,-8.71 15.87,-8.73 15.95,-8.73 16.03,-8.74 16.10,-8.73 16.18,-8.71 16.25,-8.68 16.33,-8.65 16.39,-8.60 16.45,-8.55 16.50,-8.49 16.55,-8.43 16.58,-8.35 16.62,-8.28 16.63,-8.20 16.64,-8.13 16.64,-8.05 16.64,-7.97 16.63,-7.94 16.62,-7.92 16.58,-7.82 16.54,-7.72 16.46,-7.64 16.39,-7.57 16.30,-7.52 16.21,-7.46 16.10,-7.45 16.00,-7.43 15.89,-7.44 15.79,-7.46 15.69,-7.51 15.60,-7.56 15.52,-7.63 15.45,-7.71 15.40,-7.81 15.36,-7.90 15.35,-8.01 15.33,-8.11 15.35,-8.22 15.38,-8.32 15.43,-8.41 15.48,-8.50 15.56,-8.57 15.64,-8.64 15.74,-8.68 15.84,-8.72 15.95,-8.73 16.05,-8.74 16.16,-8.71 16.26,-8.68 16.35,-8.62 16.44,-8.57 16.50,-8.48 16.57,-8.40 16.60,-8.30 16.64,-8.20 16.64,-8.09 16.64,-7.99 16.61,-7.88 16.57,-7.78 16.51,-7.70 16.45,-7.61 16.36,-7.55 16.27,-7.49 16.17,-7.46 16.07,-7.43 15.96,-7.44 15.86,-7.44 15.76,-7.48 15.66,-7.52 15.58,-7.59 15.49,-7.65 15.44,-7.74 15.38,-7.83 15.36,-7.94 15.33,-8.04 15.34,-8.12 15.34,-8.20 15.37,-8.28 15.39,-8.35 15.43,-8.42 15.47,-8.49 15.53,-8.54 15.58,-8.60 15.65,-8.64 15.72,-8.68 15.79,-8.71 15.87,-8.73 15.95,-8.73 16.03,-8.74 16.10,-8.73 16.18,-8.71 16.25,-8.68 16.33,-8.65 16.39,-8.60 16.45,-8.55 16.50,-8.49 16.55,-8.43 16.58,-8.35 16.62,-8.28 16.63,-8.20 16.64,-8.13 16.64,-8.05 16.64,-7.97 16.97,-5.97 17.31,-3.98 17.03,-2.43 16.75,-0.88 16.53,1.05 16.31,2.99 16.04,4.59 15.78,6.18 15.78,7.00 15.77,7.82 15.30,7.38 14.82,6.93 15.01,7.04 15.19,7.14 15.35,7.29 15.50,7.44 15.61,7.62 15.73,7.80 15.80,8.00 15.86,8.20 15.88,8.42 15.90,8.63 15.86,8.84 15.83,9.05 15.75,9.24 15.66,9.44 15.53,9.61 15.41,9.78 15.24,9.91 15.08,10.05 14.88,10.14 14.69,10.23 14.48,10.27 14.27,10.32 14.06,10.31 13.85,10.30 13.64,10.24 13.44,10.18 13.09,10.11 12.73,10.03 11.86,9.46 10.98,8.90 9.82,8.39 8.65,7.89 7.37,7.21 6.09,6.53 4.87,5.81 3.65,5.09 2.72,4.40 1.79,3.70 0.91,2.98 0.04,2.25 -0.42,1.57 -0.89,0.89 -0.98,0.77 -1.08,0.65 -1.14,0.51 -1.20,0.37 -1.23,0.22 -1.26,0.07 -1.25,-0.07 -1.24,-0.22 -1.19,-0.37 -1.15,-0.51 -1.07,-0.64 -0.99,-0.77 -0.88,-0.88 -0.77,-0.99 -0.64,-1.07 -0.51,-1.15 -0.37,-1.19 -0.22,-1.24 -0.07,-1.25 0.07,-1.26 0.22,-1.23 0.37,-1.20 0.51,-1.14 0.65,-1.08 0.77,-0.98 0.89,-0.89 0.89,-0.89 L 0.89,-0.89 Z"></path></g><g transform="translate(294 138.66665649414062) rotate(0 9.66668701171875 -7.666656494140625)" stroke="none"><path fill="#1e1e1e" d="M 1.05,-0.26 Q 1.05,-0.26 1.50,0.43 1.95,1.13 1.98,1.33 2.00,1.52 1.98,1.72 1.95,1.91 1.89,2.09 1.82,2.28 1.71,2.44 1.60,2.60 1.45,2.73 1.30,2.86 1.13,2.95 0.96,3.04 0.77,3.09 0.58,3.14 0.38,3.14 0.19,3.14 0.00,3.09 -0.18,3.05 -0.36,2.96 -0.53,2.87 -0.68,2.74 -0.82,2.61 -0.93,2.45 -1.05,2.29 -1.12,2.10 -1.19,1.92 -0.88,1.08 -0.57,0.23 -0.10,-1.55 0.35,-3.34 1.13,-5.60 1.90,-7.85 2.63,-9.63 3.36,-11.42 4.29,-13.03 5.22,-14.63 6.20,-16.09 7.18,-17.54 8.14,-18.49 9.10,-19.45 10.66,-19.61 12.21,-19.77 13.28,-18.72 14.35,-17.67 14.98,-15.89 15.60,-14.11 16.23,-11.48 16.85,-8.85 17.31,-6.59 17.76,-4.32 18.14,-2.62 18.52,-0.92 18.69,0.24 18.86,1.41 19.38,1.75 19.89,2.09 19.89,2.17 19.90,2.25 19.88,2.33 19.86,2.40 19.83,2.48 19.79,2.55 19.74,2.61 19.69,2.67 19.63,2.71 19.56,2.76 19.49,2.79 19.41,2.82 19.34,2.83 19.26,2.84 19.18,2.83 19.10,2.83 19.03,2.80 18.95,2.77 18.88,2.73 18.82,2.69 18.76,2.63 18.71,2.57 18.67,2.50 18.63,2.43 18.61,2.36 18.59,2.28 18.68,2.01 18.76,1.74 18.84,1.67 18.93,1.61 19.03,1.57 19.13,1.54 19.24,1.54 19.34,1.54 19.44,1.57 19.54,1.60 19.63,1.67 19.71,1.73 19.77,1.82 19.84,1.90 19.87,2.00 19.89,2.11 19.89,2.21 19.89,2.32 19.85,2.42 19.81,2.52 19.74,2.60 19.67,2.68 19.58,2.74 19.49,2.79 19.39,2.82 19.29,2.84 19.18,2.83 19.07,2.82 18.98,2.78 18.88,2.73 18.80,2.66 18.72,2.59 18.67,2.50 18.62,2.40 18.60,2.30 18.59,2.19 18.60,2.09 18.62,1.98 18.67,1.89 18.72,1.79 18.79,1.72 18.87,1.65 18.96,1.60 19.06,1.56 19.17,1.54 19.27,1.53 19.37,1.55 19.48,1.57 19.57,1.63 19.66,1.68 19.73,1.76 19.80,1.84 19.84,1.94 19.88,2.04 19.89,2.14 19.90,2.25 19.87,2.35 19.84,2.45 19.87,2.27 19.89,2.09 19.89,2.17 19.90,2.25 19.88,2.33 19.86,2.40 19.83,2.48 19.79,2.55 19.74,2.61 19.69,2.67 19.63,2.71 19.56,2.76 19.49,2.79 19.41,2.82 19.34,2.83 19.26,2.84 19.18,2.83 19.10,2.83 19.03,2.80 18.95,2.77 18.89,2.73 18.82,2.69 18.77,2.63 18.71,2.57 18.67,2.50 18.63,2.43 18.61,2.36 18.59,2.28 16.95,2.11 15.32,1.95 15.17,0.89 15.02,-0.15 14.63,-1.89 14.25,-3.63 13.82,-5.84 13.39,-8.06 12.84,-10.57 12.30,-13.07 11.95,-14.36 11.60,-15.64 11.41,-16.26 11.23,-16.88 10.62,-16.25 10.01,-15.62 9.09,-14.27 8.17,-12.91 7.34,-11.51 6.52,-10.11 5.82,-8.43 5.13,-6.75 4.34,-4.45 3.55,-2.16 3.09,-0.92 2.63,0.30 2.15,1.45 1.66,2.59 1.81,1.86 1.95,1.13 1.98,1.33 2.00,1.52 1.98,1.72 1.95,1.91 1.89,2.09 1.82,2.28 1.71,2.44 1.60,2.60 1.45,2.73 1.30,2.86 1.13,2.95 0.96,3.04 0.77,3.09 0.58,3.14 0.38,3.14 0.19,3.14 0.00,3.09 -0.18,3.05 -0.36,2.96 -0.53,2.87 -0.68,2.74 -0.82,2.61 -0.93,2.45 -1.05,2.29 -1.12,2.10 -1.19,1.92 -1.12,1.09 -1.05,0.26 -1.06,0.13 -1.08,0.00 -1.06,-0.12 -1.05,-0.25 -1.00,-0.37 -0.96,-0.50 -0.88,-0.60 -0.81,-0.71 -0.71,-0.80 -0.61,-0.89 -0.50,-0.95 -0.38,-1.01 -0.26,-1.04 -0.13,-1.07 -0.00,-1.07 0.12,-1.07 0.25,-1.04 0.38,-1.01 0.49,-0.95 0.61,-0.89 0.71,-0.80 0.80,-0.72 0.88,-0.61 0.95,-0.50 1.00,-0.38 1.05,-0.26 1.05,-0.26 L 1.05,-0.26 Z"></path></g><g transform="translate(300.00006103515625 132) rotate(0 6.33331298828125 -0.6666717529296875)" stroke="none"><path fill="#1e1e1e" d="M -0.23,-1.18 Q -0.23,-1.18 0.67,-1.59 1.59,-2.00 3.17,-2.29 4.74,-2.58 6.36,-2.52 7.97,-2.46 10.11,-1.89 12.24,-1.33 12.34,-1.31 12.45,-1.29 12.54,-1.24 12.63,-1.19 12.70,-1.11 12.78,-1.03 12.82,-0.93 12.86,-0.83 12.87,-0.73 12.88,-0.62 12.86,-0.52 12.83,-0.42 12.77,-0.33 12.72,-0.24 12.64,-0.17 12.55,-0.10 12.45,-0.06 12.35,-0.03 12.25,-0.02 12.14,-0.02 12.04,-0.05 11.94,-0.08 11.85,-0.14 11.76,-0.20 11.70,-0.29 11.64,-0.37 11.61,-0.48 11.58,-0.58 11.58,-0.68 11.58,-0.79 11.62,-0.89 11.65,-0.99 11.72,-1.07 11.78,-1.16 11.87,-1.21 11.96,-1.27 12.06,-1.30 12.17,-1.32 12.27,-1.32 12.38,-1.31 12.48,-1.27 12.58,-1.23 12.65,-1.16 12.73,-1.09 12.79,-0.99 12.84,-0.90 12.86,-0.80 12.88,-0.69 12.87,-0.59 12.85,-0.48 12.81,-0.39 12.76,-0.29 12.69,-0.22 12.61,-0.14 12.52,-0.09 12.42,-0.04 12.32,-0.03 12.21,-0.01 12.21,-0.01 12.21,-0.01 10.00,0.44 7.79,0.90 6.55,0.81 5.31,0.73 3.77,0.98 2.24,1.23 1.23,1.20 0.23,1.18 0.09,1.19 -0.05,1.20 -0.19,1.18 -0.34,1.15 -0.47,1.10 -0.60,1.04 -0.72,0.95 -0.83,0.86 -0.93,0.75 -1.02,0.64 -1.08,0.50 -1.14,0.37 -1.17,0.23 -1.20,0.09 -1.19,-0.05 -1.19,-0.19 -1.14,-0.33 -1.10,-0.47 -1.03,-0.60 -0.96,-0.72 -0.86,-0.83 -0.75,-0.93 -0.63,-1.01 -0.51,-1.09 -0.37,-1.13 -0.23,-1.18 -0.23,-1.18 L -0.23,-1.18 Z"></path></g><g transform="translate(342 42) rotate(0 6.333343505859375 8.000015258789062)" stroke="none"><path fill="#1e1e1e" d="M 1.10,0 Q 1.10,0 1.34,0.76 1.58,1.53 1.81,3.09 2.03,4.65 2.16,7.17 2.28,9.70 2.33,11.70 2.38,13.70 2.40,15.31 2.42,16.93 2.43,18.19 2.44,19.46 2.44,20.19 2.44,20.91 2.35,21.60 2.25,22.29 1.69,21.92 1.13,21.56 2.13,21.23 3.14,20.90 3.89,20.42 4.63,19.94 5.09,19.18 5.55,18.42 6.15,17.17 6.75,15.91 7.20,14.83 7.65,13.75 7.60,13.01 7.56,12.26 7.37,11.68 7.18,11.09 7.70,10.93 8.23,10.78 9.09,9.66 9.96,8.53 10.40,7.33 10.84,6.12 11.24,4.67 11.64,3.22 11.42,1.92 11.21,0.63 10.62,-0.79 10.03,-2.22 9.22,-3.22 8.41,-4.22 7.25,-4.34 6.09,-4.47 5.03,-4.06 3.97,-3.65 2.04,-2.26 0.10,-0.86 0.02,-0.84 -0.05,-0.83 -0.13,-0.84 -0.21,-0.84 -0.28,-0.87 -0.36,-0.89 -0.42,-0.93 -0.49,-0.98 -0.55,-1.03 -0.60,-1.09 -0.64,-1.16 -0.68,-1.23 -0.70,-1.30 -0.73,-1.38 -0.73,-1.46 -0.73,-1.54 -0.72,-1.61 -0.70,-1.69 -0.67,-1.76 -0.64,-1.84 -0.59,-1.90 -0.54,-1.96 -0.47,-2.01 -0.41,-2.05 -0.34,-2.09 -0.26,-2.12 0.14,-1.86 0.56,-1.59 0.56,-1.49 0.56,-1.38 0.52,-1.28 0.49,-1.18 0.43,-1.09 0.36,-1.01 0.27,-0.95 0.19,-0.89 0.08,-0.86 -0.01,-0.83 -0.11,-0.84 -0.22,-0.85 -0.32,-0.89 -0.42,-0.92 -0.50,-0.99 -0.58,-1.06 -0.63,-1.15 -0.69,-1.24 -0.71,-1.35 -0.73,-1.45 -0.72,-1.56 -0.71,-1.66 -0.67,-1.76 -0.62,-1.86 -0.55,-1.93 -0.48,-2.01 -0.38,-2.06 -0.29,-2.11 -0.18,-2.13 -0.08,-2.14 0.02,-2.13 0.12,-2.11 0.21,-2.06 0.31,-2.01 0.38,-1.93 0.45,-1.86 0.50,-1.76 0.54,-1.66 0.56,-1.56 0.57,-1.45 0.54,-1.35 0.52,-1.24 0.47,-1.15 0.41,-1.06 0.33,-0.99 0.25,-0.92 0.15,-0.89 0.05,-0.85 -0.04,-0.84 -0.15,-0.83 -0.25,-0.86 -0.36,-0.89 -0.44,-0.95 -0.53,-1.01 -0.60,-1.10 -0.66,-1.18 -0.28,-1.02 0.10,-0.86 0.02,-0.84 -0.05,-0.83 -0.13,-0.84 -0.21,-0.84 -0.28,-0.87 -0.36,-0.89 -0.42,-0.93 -0.49,-0.98 -0.55,-1.03 -0.60,-1.09 -0.64,-1.16 -0.68,-1.23 -0.70,-1.30 -0.73,-1.38 -0.73,-1.46 -0.73,-1.54 -0.72,-1.61 -0.70,-1.69 -0.67,-1.76 -0.64,-1.84 -0.59,-1.90 -0.54,-1.96 -0.47,-2.01 -0.41,-2.05 -0.34,-2.09 -0.26,-2.12 1.34,-4.52 2.95,-6.93 4.78,-7.38 6.62,-7.82 8.64,-7.24 10.67,-6.67 11.96,-5.11 13.24,-3.56 13.97,-1.69 14.71,0.16 14.89,2.11 15.08,4.06 14.61,5.74 14.15,7.43 13.45,9.07 12.76,10.72 11.59,12.05 10.42,13.39 9.26,13.82 8.09,14.25 6.97,14.08 5.85,13.92 5.25,13.50 4.66,13.08 4.59,11.35 4.52,9.61 5.30,8.93 6.07,8.26 7.03,8.16 7.98,8.06 8.96,8.67 9.93,9.27 10.50,10.74 11.07,12.21 11.01,13.60 10.94,15.00 10.45,16.23 9.95,17.46 9.23,18.94 8.51,20.42 7.65,21.60 6.80,22.77 5.91,23.38 5.03,23.98 3.66,24.23 2.29,24.49 1.63,24.54 0.96,24.59 0.01,23.88 -0.92,23.17 -1.02,22.05 -1.12,20.93 -1.12,20.20 -1.12,19.48 -1.13,18.22 -1.13,16.96 -1.14,15.36 -1.15,13.76 -1.17,11.79 -1.19,9.81 -1.23,7.50 -1.26,5.19 -1.42,3.36 -1.58,1.53 -1.34,0.76 -1.10,0 -1.09,-0.13 -1.07,-0.26 -1.02,-0.38 -0.98,-0.51 -0.90,-0.62 -0.82,-0.73 -0.72,-0.82 -0.62,-0.91 -0.51,-0.97 -0.39,-1.03 -0.26,-1.06 -0.13,-1.09 0.00,-1.09 0.13,-1.09 0.26,-1.06 0.39,-1.03 0.51,-0.97 0.62,-0.91 0.72,-0.82 0.82,-0.73 0.90,-0.62 0.98,-0.51 1.02,-0.38 1.07,-0.26 1.09,-0.13 1.10,0.00 1.10,0.00 L 1.10,0 Z"></path></g><g transform="translate(418.66668701171875 44) rotate(0 2.666656494140625 -0.6666717529296875)" stroke="none"><path fill="#1e1e1e" d="M -0.14,-0.84 Q -0.14,-0.84 2.36,-1.36 4.87,-1.89 4.98,-1.90 5.08,-1.91 5.19,-1.88 5.29,-1.86 5.38,-1.80 5.47,-1.74 5.53,-1.66 5.60,-1.57 5.64,-1.47 5.67,-1.37 5.67,-1.27 5.68,-1.16 5.64,-1.06 5.61,-0.96 5.55,-0.87 5.49,-0.79 5.40,-0.73 5.31,-0.67 5.21,-0.63 5.11,-0.60 5.00,-0.61 4.90,-0.61 4.80,-0.65 4.70,-0.69 4.62,-0.75 4.53,-0.82 4.48,-0.91 4.42,-1.00 4.40,-1.10 4.37,-1.21 4.38,-1.31 4.39,-1.42 4.43,-1.52 4.48,-1.61 4.55,-1.69 4.62,-1.77 4.71,-1.82 4.80,-1.87 4.91,-1.89 5.01,-1.91 5.12,-1.90 5.22,-1.88 5.32,-1.83 5.41,-1.79 5.49,-1.71 5.56,-1.63 5.61,-1.54 5.66,-1.44 5.67,-1.34 5.68,-1.23 5.66,-1.13 5.64,-1.02 5.59,-0.93 5.54,-0.84 5.46,-0.77 5.38,-0.70 5.28,-0.66 5.18,-0.62 5.18,-0.62 5.18,-0.62 2.66,0.10 0.14,0.84 0.03,0.84 -0.06,0.84 -0.16,0.82 -0.26,0.80 -0.35,0.76 -0.45,0.72 -0.53,0.65 -0.61,0.59 -0.67,0.51 -0.73,0.42 -0.77,0.33 -0.81,0.24 -0.83,0.13 -0.85,0.03 -0.84,-0.06 -0.83,-0.16 -0.80,-0.26 -0.77,-0.36 -0.71,-0.44 -0.66,-0.53 -0.58,-0.60 -0.51,-0.67 -0.42,-0.73 -0.33,-0.78 -0.23,-0.81 -0.14,-0.84 -0.14,-0.84 L -0.14,-0.84 Z"></path></g><g transform="translate(422.66668701171875 44) rotate(0 -1 7.3333282470703125)" stroke="none"><path fill="#1e1e1e" d="M 0,-1.03 Q 0,-1.03 0.18,-1.16 0.37,-1.28 0.63,-0.62 0.90,0.03 0.15,0.15 -0.59,0.27 -1.42,0.93 -2.25,1.59 -2.76,2.04 -3.28,2.49 -3.93,3.68 -4.59,4.87 -5.05,6.09 -5.51,7.30 -5.48,8.35 -5.44,9.40 -5.35,10.04 -5.25,10.68 -3.94,11.61 -2.63,12.53 -0.98,12.81 0.66,13.08 2.85,13.82 5.04,14.57 5.14,14.60 5.24,14.63 5.33,14.69 5.42,14.74 5.49,14.83 5.55,14.91 5.59,15.01 5.62,15.11 5.62,15.22 5.62,15.33 5.59,15.43 5.56,15.53 5.49,15.61 5.43,15.70 5.34,15.76 5.25,15.82 5.15,15.85 5.05,15.88 4.94,15.87 4.84,15.87 4.74,15.83 4.64,15.79 4.56,15.72 4.48,15.65 4.42,15.56 4.36,15.47 4.34,15.37 4.32,15.27 4.33,15.16 4.34,15.05 4.38,14.96 4.43,14.86 4.50,14.78 4.57,14.70 4.67,14.65 4.76,14.60 4.86,14.59 4.97,14.57 5.07,14.58 5.18,14.60 5.27,14.65 5.37,14.70 5.44,14.78 5.51,14.85 5.56,14.95 5.60,15.04 5.62,15.15 5.63,15.26 5.61,15.36 5.58,15.46 5.53,15.55 5.48,15.65 5.40,15.72 5.32,15.79 5.22,15.83 5.12,15.87 5.01,15.87 4.91,15.88 4.91,15.88 4.91,15.88 2.46,16.16 0.01,16.43 -2.38,15.93 -4.78,15.43 -6.68,13.62 -8.58,11.82 -8.83,10.56 -9.09,9.30 -8.96,7.66 -8.84,6.03 -8.20,4.54 -7.56,3.05 -6.51,1.49 -5.47,-0.06 -4.69,-0.68 -3.91,-1.30 -3.35,-1.61 -2.78,-1.92 -1.33,-2.43 0.11,-2.94 0.70,-2.90 1.29,-2.86 2.03,-2.45 2.76,-2.03 2.44,-0.68 2.13,0.66 1.64,0.97 1.16,1.28 0.58,1.16 0,1.03 -0.12,1.02 -0.24,1.00 -0.36,0.96 -0.48,0.91 -0.58,0.84 -0.68,0.77 -0.77,0.68 -0.85,0.58 -0.91,0.47 -0.97,0.36 -1.00,0.24 -1.03,0.12 -1.03,-0.00 -1.03,-0.12 -1.00,-0.24 -0.97,-0.36 -0.91,-0.47 -0.85,-0.58 -0.77,-0.68 -0.68,-0.77 -0.58,-0.84 -0.48,-0.91 -0.36,-0.96 -0.24,-1.00 -0.12,-1.02 0.00,-1.03 0.00,-1.03 L 0,-1.03 Z"></path></g><g transform="translate(474.66668701171875 108.66665649414062) rotate(0 4.333343505859375 10.666671752929688)" stroke="none"><path fill="#1e1e1e" d="M -1.21,0 Q -1.21,0 -1.44,-0.76 -1.67,-1.53 -1.69,-1.66 -1.72,-1.80 -1.70,-2.00 -1.67,-2.21 -1.60,-2.40 -1.52,-2.60 -1.41,-2.77 -1.29,-2.94 -1.13,-3.08 -0.98,-3.22 -0.79,-3.32 -0.61,-3.41 -0.41,-3.46 -0.20,-3.51 0.00,-3.51 0.20,-3.51 0.41,-3.46 0.61,-3.41 0.79,-3.32 0.98,-3.22 1.13,-3.08 1.29,-2.94 1.41,-2.77 1.52,-2.60 1.60,-2.40 1.67,-2.21 1.70,-2.00 1.72,-1.80 1.75,0.19 1.77,2.19 1.79,4.43 1.80,6.68 1.61,9.42 1.43,12.17 1.36,15.18 1.29,18.19 1.28,20.06 1.26,21.93 1.25,23.08 1.24,24.23 0.46,23.91 -0.32,23.60 0.08,23.17 0.49,22.74 1.35,22.50 2.21,22.25 3.22,21.55 4.22,20.85 4.99,19.78 5.76,18.70 6.82,16.42 7.89,14.13 8.73,11.66 9.56,9.19 9.90,7.13 10.25,5.06 9.66,2.95 9.08,0.83 8.26,-0.24 7.45,-1.33 6.26,-1.65 5.07,-1.97 3.83,-1.80 2.58,-1.62 1.45,-1.11 0.31,-0.59 -1.27,0.52 -2.86,1.64 -2.94,1.71 -3.02,1.78 -3.11,1.82 -3.21,1.86 -3.32,1.87 -3.42,1.88 -3.53,1.85 -3.63,1.83 -3.72,1.77 -3.81,1.71 -3.87,1.63 -3.94,1.54 -3.97,1.44 -4.01,1.34 -4.01,1.24 -4.01,1.13 -3.98,1.03 -3.95,0.93 -3.89,0.84 -3.82,0.76 -3.74,0.70 -3.65,0.63 -3.55,0.60 -3.45,0.57 -3.34,0.58 -3.23,0.58 -3.13,0.62 -3.04,0.66 -2.95,0.72 -2.87,0.79 -2.81,0.88 -2.76,0.97 -2.73,1.08 -2.71,1.18 -2.72,1.28 -2.73,1.39 -2.77,1.49 -2.81,1.58 -2.89,1.66 -2.96,1.74 -3.05,1.79 -3.14,1.84 -3.25,1.86 -3.35,1.88 -3.46,1.87 -3.56,1.85 -3.66,1.80 -3.75,1.75 -3.83,1.68 -3.90,1.60 -3.95,1.51 -3.99,1.41 -4.01,1.31 -4.02,1.20 -4.00,1.10 -3.98,0.99 -3.93,0.90 -3.87,0.81 -3.87,0.81 -3.87,0.81 -2.60,-1.55 -1.32,-3.92 0.45,-4.66 2.23,-5.40 4.25,-5.47 6.28,-5.54 8.26,-4.64 10.24,-3.74 11.47,-1.94 12.71,-0.15 13.34,2.70 13.98,5.56 13.57,7.98 13.17,10.41 12.25,13.08 11.33,15.76 10.08,18.36 8.82,20.97 7.73,22.38 6.64,23.80 5.56,24.62 4.48,25.44 3.53,25.68 2.57,25.92 2.03,26.19 1.48,26.45 0.78,26.72 0.09,27.00 -0.71,26.70 -1.52,26.41 -2.03,25.34 -2.53,24.27 -2.51,23.07 -2.49,21.86 -2.44,19.98 -2.39,18.10 -2.29,15.00 -2.19,11.91 -2.00,9.29 -1.80,6.68 -1.79,4.43 -1.77,2.19 -1.75,0.19 -1.72,-1.80 -1.70,-2.00 -1.67,-2.21 -1.60,-2.40 -1.52,-2.60 -1.41,-2.77 -1.29,-2.94 -1.13,-3.08 -0.98,-3.22 -0.79,-3.32 -0.61,-3.41 -0.41,-3.46 -0.20,-3.51 -0.00,-3.51 0.20,-3.51 0.41,-3.46 0.61,-3.41 0.79,-3.32 0.98,-3.22 1.13,-3.08 1.29,-2.94 1.41,-2.77 1.52,-2.60 1.60,-2.40 1.67,-2.21 1.70,-2.00 1.72,-1.80 1.69,-1.66 1.67,-1.53 1.44,-0.76 1.21,0 1.19,0.14 1.17,0.29 1.12,0.42 1.07,0.56 0.99,0.68 0.90,0.80 0.79,0.90 0.68,0.99 0.55,1.06 0.43,1.13 0.28,1.16 0.14,1.20 -0.00,1.20 -0.14,1.20 -0.28,1.16 -0.43,1.13 -0.55,1.06 -0.68,0.99 -0.79,0.90 -0.90,0.80 -0.99,0.68 -1.07,0.56 -1.12,0.42 -1.17,0.29 -1.19,0.14 -1.21,-0.00 -1.21,-0.00 L -1.21,0 Z"></path></g><g transform="translate(377.3333740234375 48.000030517578125) rotate(0 13.666656494140625 1.666656494140625)" stroke="none"><path fill="#1e1e1e" d="M 0.42,-1.05 Q 0.42,-1.05 1.50,-0.98 2.58,-0.92 3.38,-0.82 4.18,-0.73 5.58,-0.48 6.98,-0.23 8.78,-0.14 10.59,-0.06 12.53,-0.01 14.46,0.02 15.68,0.04 16.89,0.06 18.84,0.26 20.78,0.47 22.24,0.76 23.69,1.05 25.83,2.24 27.98,3.44 27.94,3.54 27.91,3.64 27.84,3.72 27.77,3.81 27.69,3.86 27.60,3.92 27.49,3.95 27.39,3.98 27.29,3.97 27.18,3.96 27.08,3.92 26.98,3.88 26.90,3.81 26.82,3.74 26.77,3.65 26.72,3.56 26.69,3.45 26.67,3.35 26.69,3.24 26.70,3.14 26.75,3.04 26.79,2.95 26.87,2.87 26.94,2.79 27.03,2.75 27.13,2.70 27.23,2.68 27.34,2.67 27.44,2.68 27.55,2.70 27.64,2.75 27.73,2.81 27.81,2.88 27.88,2.96 27.92,3.06 27.96,3.16 27.97,3.26 27.98,3.37 27.96,3.47 27.94,3.57 27.88,3.66 27.82,3.75 27.74,3.82 27.66,3.89 27.56,3.93 27.46,3.97 27.36,3.97 27.25,3.97 27.15,3.94 27.05,3.91 26.96,3.85 26.87,3.79 26.81,3.71 26.74,3.62 26.71,3.52 26.68,3.42 26.68,3.31 26.68,3.21 26.68,3.21 26.68,3.21 24.81,4.00 22.93,4.79 21.65,4.53 20.37,4.26 18.60,4.07 16.83,3.87 15.60,3.85 14.37,3.83 12.37,3.78 10.37,3.73 8.33,3.59 6.28,3.46 4.93,3.19 3.57,2.92 2.41,2.68 1.25,2.45 0.41,1.75 -0.42,1.05 -0.54,0.99 -0.66,0.92 -0.76,0.83 -0.86,0.74 -0.94,0.62 -1.01,0.51 -1.06,0.38 -1.11,0.25 -1.12,0.11 -1.13,-0.02 -1.12,-0.15 -1.10,-0.29 -1.05,-0.42 -0.99,-0.54 -0.91,-0.65 -0.83,-0.77 -0.73,-0.86 -0.63,-0.94 -0.50,-1.01 -0.38,-1.07 -0.25,-1.10 -0.11,-1.13 0.02,-1.13 0.15,-1.12 0.29,-1.09 0.42,-1.05 0.42,-1.05 L 0.42,-1.05 Z"></path></g><g transform="translate(380.66668701171875 40) rotate(0 -6.333343505859375 9)" stroke="none"><path fill="#1e1e1e" d="M 0,1.13 Q 0,1.13 -0.75,1.37 -1.51,1.61 -2.45,2.14 -3.39,2.67 -4.41,3.44 -5.43,4.22 -6.31,4.78 -7.19,5.35 -7.65,5.71 -8.12,6.07 -8.77,6.69 -9.43,7.30 -9.94,7.44 -10.46,7.58 -10.68,6.89 -10.90,6.19 -10.44,6.54 -9.98,6.88 -8.91,7.63 -7.84,8.37 -7.04,9.32 -6.25,10.26 -5.41,11.14 -4.58,12.02 -3.76,13.04 -2.94,14.07 -2.45,14.63 -1.97,15.20 -1.00,16.55 -0.03,17.91 0.05,17.97 0.13,18.03 0.20,18.12 0.26,18.21 0.29,18.31 0.31,18.41 0.31,18.52 0.31,18.62 0.27,18.72 0.23,18.82 0.16,18.90 0.09,18.99 0.00,19.04 -0.08,19.10 -0.18,19.12 -0.28,19.15 -0.39,19.14 -0.50,19.13 -0.59,19.08 -0.69,19.04 -0.77,18.97 -0.84,18.89 -0.90,18.80 -0.95,18.71 -0.97,18.60 -0.98,18.50 -0.97,18.39 -0.95,18.29 -0.90,18.19 -0.85,18.10 -0.78,18.03 -0.70,17.95 -0.61,17.91 -0.51,17.86 -0.40,17.85 -0.30,17.83 -0.20,17.86 -0.09,17.88 -0.00,17.93 0.08,17.99 0.15,18.07 0.22,18.15 0.26,18.24 0.30,18.34 0.31,18.45 0.32,18.55 0.29,18.66 0.26,18.76 0.20,18.85 0.15,18.94 0.06,19.00 -0.01,19.07 -0.11,19.10 -0.21,19.14 -0.32,19.14 -0.43,19.14 -0.53,19.11 -0.63,19.07 -0.63,19.07 -0.63,19.07 -2.75,18.37 -4.87,17.67 -5.40,17.03 -5.94,16.39 -6.62,15.47 -7.31,14.56 -8.20,13.57 -9.10,12.59 -9.67,11.86 -10.25,11.12 -10.66,10.67 -11.07,10.22 -11.75,9.86 -12.43,9.49 -12.98,9.02 -13.53,8.56 -13.69,8.02 -13.86,7.49 -13.53,6.73 -13.20,5.96 -12.88,5.47 -12.57,4.98 -11.80,4.71 -11.04,4.45 -10.65,3.91 -10.26,3.37 -9.63,2.90 -9.01,2.44 -8.22,1.96 -7.43,1.49 -6.33,0.72 -5.24,-0.04 -4.32,-0.60 -3.40,-1.17 -2.47,-1.39 -1.54,-1.61 -0.77,-1.37 0,-1.13 0.13,-1.11 0.27,-1.10 0.39,-1.05 0.52,-1.00 0.63,-0.92 0.75,-0.84 0.84,-0.74 0.93,-0.64 0.99,-0.52 1.05,-0.40 1.09,-0.26 1.12,-0.13 1.12,0.00 1.12,0.13 1.09,0.26 1.05,0.40 0.99,0.52 0.93,0.64 0.84,0.74 0.75,0.84 0.63,0.92 0.52,1.00 0.39,1.05 0.27,1.10 0.13,1.11 -0.00,1.13 -0.00,1.13 L 0,1.13 Z"></path></g><g transform="translate(326 123.33331298828125) rotate(0 39.999969482421875 -22.333328247070312)" stroke="none"><path fill="#1e1e1e" d="M 1.21,0 Q 1.21,0 1.48,0.38 1.74,0.76 1.72,0.97 1.69,1.18 1.62,1.38 1.54,1.57 1.42,1.75 1.30,1.92 1.14,2.06 0.99,2.20 0.80,2.30 0.61,2.39 0.41,2.45 0.21,2.50 -0.00,2.50 -0.21,2.50 -0.41,2.45 -0.61,2.39 -0.80,2.30 -0.99,2.20 -1.14,2.06 -1.30,1.92 -1.42,1.75 -1.54,1.57 -1.62,1.38 -1.69,1.18 -1.72,0.97 -1.74,0.76 -0.81,-0.13 0.11,-1.04 0.63,-1.22 1.14,-1.39 2.13,-2.15 3.13,-2.90 4.64,-3.87 6.14,-4.84 7.74,-5.84 9.33,-6.83 10.56,-7.63 11.79,-8.42 14.68,-9.96 17.58,-11.51 20.10,-12.90 22.63,-14.29 24.88,-15.47 27.13,-16.65 29.17,-17.89 31.22,-19.13 33.30,-20.26 35.38,-21.39 37.97,-22.82 40.55,-24.25 42.66,-25.27 44.77,-26.29 46.79,-27.28 48.80,-28.28 50.19,-29.06 51.58,-29.84 52.98,-30.58 54.38,-31.32 55.49,-31.99 56.61,-32.66 57.77,-33.19 58.94,-33.73 59.88,-34.28 60.83,-34.83 61.81,-35.44 62.79,-36.06 63.64,-36.54 64.49,-37.02 64.94,-37.35 65.39,-37.68 66.08,-38.09 66.76,-38.50 67.28,-38.94 67.79,-39.38 68.55,-39.88 69.31,-40.37 69.95,-40.63 70.59,-40.90 71.06,-41.30 71.52,-41.71 72.47,-42.32 73.41,-42.94 74.17,-43.44 74.92,-43.94 75.89,-44.47 76.86,-44.99 77.53,-45.44 78.20,-45.88 79.00,-46.22 79.81,-46.55 79.88,-46.58 79.95,-46.61 80.03,-46.62 80.11,-46.64 80.19,-46.63 80.27,-46.62 80.34,-46.60 80.42,-46.57 80.48,-46.53 80.55,-46.49 80.60,-46.43 80.66,-46.37 80.70,-46.30 80.74,-46.23 80.76,-46.16 80.78,-46.08 80.78,-46.00 80.79,-45.92 80.77,-45.84 80.75,-45.77 80.72,-45.70 80.68,-45.62 80.63,-45.56 80.58,-45.50 80.52,-45.46 80.46,-45.41 80.15,-45.40 79.85,-45.39 79.76,-45.45 79.68,-45.51 79.61,-45.59 79.55,-45.68 79.52,-45.78 79.48,-45.88 79.48,-45.98 79.48,-46.09 79.52,-46.19 79.55,-46.29 79.62,-46.37 79.68,-46.46 79.77,-46.52 79.86,-46.58 79.96,-46.60 80.06,-46.63 80.17,-46.63 80.28,-46.62 80.38,-46.58 80.47,-46.54 80.55,-46.47 80.63,-46.40 80.69,-46.31 80.74,-46.22 80.76,-46.11 80.79,-46.01 80.77,-45.90 80.76,-45.80 80.72,-45.70 80.67,-45.61 80.60,-45.53 80.52,-45.45 80.43,-45.40 80.34,-45.36 80.23,-45.34 80.13,-45.32 80.02,-45.34 79.92,-45.36 79.82,-45.41 79.73,-45.46 79.66,-45.54 79.59,-45.61 79.54,-45.71 79.50,-45.81 79.49,-45.91 79.48,-46.02 79.50,-46.12 79.52,-46.23 79.58,-46.32 79.63,-46.41 79.72,-46.48 79.80,-46.54 79.90,-46.58 79.99,-46.62 80.10,-46.63 80.21,-46.63 80.01,-46.59 79.81,-46.55 79.88,-46.58 79.95,-46.61 80.03,-46.62 80.11,-46.64 80.19,-46.63 80.27,-46.62 80.34,-46.60 80.42,-46.57 80.48,-46.53 80.55,-46.49 80.60,-46.43 80.66,-46.37 80.70,-46.30 80.74,-46.23 80.76,-46.16 80.78,-46.08 80.78,-46.00 80.79,-45.92 80.77,-45.84 80.75,-45.77 80.72,-45.70 80.68,-45.62 80.63,-45.56 80.58,-45.50 80.52,-45.46 80.46,-45.41 80.36,-43.99 80.27,-42.58 79.40,-42.14 78.52,-41.71 78.01,-41.23 77.50,-40.74 76.75,-40.40 76.01,-40.05 75.04,-39.38 74.07,-38.71 73.63,-38.35 73.19,-37.98 72.30,-37.51 71.41,-37.05 70.85,-36.70 70.30,-36.36 69.52,-35.73 68.75,-35.11 68.22,-34.80 67.68,-34.50 67.06,-34.05 66.43,-33.61 65.65,-33.17 64.87,-32.73 63.83,-32.07 62.78,-31.42 61.67,-30.79 60.56,-30.16 59.59,-29.72 58.62,-29.29 57.41,-28.57 56.21,-27.85 54.85,-27.14 53.50,-26.43 52.01,-25.60 50.53,-24.77 48.50,-23.77 46.46,-22.77 44.45,-21.81 42.44,-20.84 39.84,-19.41 37.24,-17.97 35.24,-16.88 33.23,-15.79 31.08,-14.50 28.93,-13.21 26.72,-12.05 24.50,-10.89 21.94,-9.49 19.38,-8.08 16.61,-6.65 13.83,-5.21 12.57,-4.41 11.30,-3.61 9.71,-2.66 8.13,-1.71 6.66,-0.80 5.20,0.09 3.72,1.04 2.24,2.00 1.44,2.23 0.64,2.46 1.19,1.61 1.74,0.76 1.72,0.97 1.69,1.18 1.62,1.38 1.54,1.57 1.42,1.75 1.30,1.92 1.14,2.06 0.99,2.20 0.80,2.30 0.61,2.39 0.41,2.45 0.21,2.50 0.00,2.50 -0.21,2.50 -0.41,2.45 -0.61,2.39 -0.80,2.30 -0.99,2.20 -1.14,2.06 -1.30,1.92 -1.42,1.75 -1.54,1.57 -1.62,1.38 -1.69,1.18 -1.72,0.97 -1.74,0.76 -1.48,0.38 -1.21,0 -1.19,-0.14 -1.18,-0.29 -1.12,-0.42 -1.07,-0.56 -0.99,-0.68 -0.91,-0.80 -0.80,-0.90 -0.69,-1.00 -0.56,-1.06 -0.43,-1.13 -0.28,-1.17 -0.14,-1.20 0.00,-1.20 0.14,-1.20 0.28,-1.17 0.43,-1.13 0.56,-1.06 0.69,-1.00 0.80,-0.90 0.91,-0.80 0.99,-0.68 1.07,-0.56 1.12,-0.42 1.18,-0.29 1.19,-0.14 1.21,0.00 1.21,0.00 L 1.21,0 Z"></path></g><g transform="translate(399.3333740234375 72) rotate(0 9 5)" stroke="none"><path fill="#1e1e1e" d="M -0.39,-1.19 Q -0.39,-1.19 0.67,-1.80 1.74,-2.41 2.68,-2.91 3.63,-3.41 4.96,-3.88 6.29,-4.36 7.95,-4.58 9.60,-4.81 10.85,-4.89 12.11,-4.97 13.04,-5.01 13.98,-5.05 14.83,-4.84 15.68,-4.63 16.54,-4.36 17.41,-4.10 18.22,-3.03 19.04,-1.95 19.13,-1.42 19.22,-0.89 19.21,-0.32 19.20,0.23 18.98,1.16 18.75,2.10 18.70,2.82 18.65,3.55 18.19,5.07 17.74,6.59 17.37,7.74 17.00,8.89 16.63,9.81 16.26,10.74 15.41,11.85 14.56,12.96 14.58,13.06 14.60,13.16 14.59,13.27 14.57,13.38 14.53,13.47 14.48,13.57 14.41,13.64 14.33,13.72 14.24,13.77 14.14,13.82 14.04,13.83 13.93,13.85 13.83,13.83 13.73,13.81 13.63,13.76 13.54,13.71 13.47,13.63 13.39,13.55 13.35,13.46 13.31,13.36 13.30,13.25 13.29,13.15 13.31,13.04 13.34,12.94 13.39,12.85 13.45,12.76 13.53,12.69 13.61,12.62 13.71,12.59 13.81,12.55 13.92,12.54 14.02,12.54 14.12,12.57 14.23,12.60 14.31,12.66 14.40,12.72 14.46,12.81 14.53,12.89 14.56,12.99 14.59,13.09 14.59,13.20 14.59,13.31 14.55,13.41 14.52,13.51 14.45,13.59 14.39,13.67 14.30,13.73 14.21,13.79 14.11,13.82 14.01,13.85 13.90,13.84 13.79,13.83 13.70,13.79 13.60,13.75 13.52,13.68 13.44,13.61 13.38,13.52 13.33,13.43 13.33,13.43 13.33,13.43 13.05,11.39 12.76,9.35 13.09,8.54 13.42,7.73 13.79,6.60 14.16,5.46 14.54,4.32 14.92,3.18 15.03,2.15 15.14,1.13 15.30,0.32 15.47,-0.48 15.54,-1.29 15.62,-2.10 15.89,-1.39 16.17,-0.68 15.10,-1.10 14.04,-1.51 13.18,-1.48 12.33,-1.46 11.18,-1.39 10.03,-1.32 8.73,-1.18 7.43,-1.04 6.32,-0.67 5.22,-0.30 4.03,0.28 2.85,0.88 1.62,1.04 0.39,1.19 0.25,1.22 0.10,1.26 -0.05,1.25 -0.20,1.24 -0.34,1.20 -0.49,1.16 -0.62,1.08 -0.76,1.01 -0.86,0.90 -0.97,0.79 -1.06,0.67 -1.14,0.54 -1.19,0.39 -1.23,0.25 -1.25,0.10 -1.26,-0.05 -1.23,-0.20 -1.21,-0.35 -1.15,-0.49 -1.09,-0.63 -1.00,-0.75 -0.91,-0.87 -0.79,-0.97 -0.67,-1.06 -0.53,-1.13 -0.39,-1.19 -0.39,-1.19 L -0.39,-1.19 Z"></path></g><g transform="translate(355.3333740234375 22) rotate(0 54.33331298828125 26.666671752929688)" stroke="none"><path fill="#1e1e1e" d="M -0.62,-0.94 Q -0.62,-0.94 -0.15,-1.49 0.31,-2.04 0.89,-2.29 1.47,-2.53 2.24,-3.13 3.01,-3.72 3.98,-4.40 4.95,-5.08 5.93,-5.77 6.91,-6.45 8.30,-7.34 9.70,-8.23 11.17,-8.86 12.65,-9.49 14.19,-10.11 15.72,-10.74 17.42,-11.24 19.12,-11.73 20.59,-12.13 22.05,-12.52 23.76,-12.73 25.48,-12.93 27.66,-13.21 29.85,-13.50 32.00,-13.63 34.14,-13.76 36.21,-13.81 38.27,-13.87 40.76,-13.71 43.26,-13.54 45.39,-13.48 47.52,-13.41 49.39,-13.39 51.26,-13.36 53.21,-12.94 55.17,-12.53 56.86,-12.17 58.56,-11.82 60.18,-11.25 61.80,-10.68 63.66,-9.85 65.52,-9.02 67.06,-8.29 68.61,-7.56 70.03,-6.86 71.46,-6.17 72.93,-5.24 74.40,-4.31 75.52,-3.24 76.65,-2.17 77.64,-1.19 78.63,-0.21 79.43,0.58 80.24,1.38 80.96,2.11 81.68,2.83 82.48,3.44 83.27,4.05 83.87,4.56 84.47,5.07 84.98,5.39 85.49,5.70 86.09,6.03 86.69,6.37 87.50,7.00 88.31,7.64 88.94,8.42 89.57,9.19 90.02,9.92 90.47,10.66 90.86,11.36 91.24,12.06 91.59,12.73 91.94,13.41 92.37,13.92 92.79,14.42 93.28,15.19 93.77,15.96 94.06,16.89 94.35,17.82 94.76,18.73 95.17,19.63 95.57,20.70 95.98,21.77 96.34,22.80 96.71,23.83 97.05,24.84 97.40,25.86 97.74,26.86 98.08,27.87 98.44,29.34 98.80,30.81 99.11,31.69 99.41,32.57 99.59,33.52 99.77,34.46 100.01,35.51 100.25,36.55 100.64,37.15 101.03,37.75 101.35,38.96 101.66,40.17 101.92,41.08 102.19,42.00 102.49,42.96 102.80,43.93 103.09,44.66 103.39,45.39 103.73,46.34 104.08,47.29 104.39,48.01 104.70,48.72 105.05,49.68 105.40,50.63 105.71,51.34 106.02,52.06 106.34,52.74 106.67,53.42 106.86,54.07 107.06,54.71 107.43,55.79 107.80,56.86 108.02,57.57 108.24,58.27 108.37,58.89 108.49,59.51 108.84,60.79 109.18,62.07 108.83,63.93 108.47,65.78 108.38,65.84 108.29,65.90 108.19,65.92 108.08,65.94 107.98,65.93 107.87,65.92 107.78,65.88 107.68,65.84 107.60,65.76 107.52,65.69 107.47,65.60 107.42,65.50 107.40,65.40 107.38,65.30 107.40,65.19 107.42,65.09 107.47,64.99 107.51,64.90 107.59,64.82 107.67,64.75 107.76,64.70 107.86,64.66 107.96,64.64 108.07,64.63 108.17,64.65 108.28,64.68 108.37,64.73 108.46,64.78 108.53,64.86 108.60,64.94 108.64,65.04 108.68,65.14 108.69,65.25 108.70,65.35 108.67,65.45 108.64,65.56 108.58,65.65 108.52,65.73 108.44,65.80 108.36,65.86 108.26,65.90 108.15,65.93 108.05,65.94 107.94,65.94 107.84,65.90 107.74,65.87 107.66,65.81 107.57,65.74 107.51,65.66 107.45,65.57 107.42,65.47 107.39,65.37 107.39,65.26 107.40,65.15 107.44,65.05 107.48,64.96 107.54,64.87 107.61,64.79 107.61,64.79 107.61,64.79 106.35,63.31 105.10,61.83 104.74,60.65 104.38,59.46 104.07,58.35 103.76,57.24 103.38,56.19 103.01,55.13 102.66,54.40 102.32,53.67 101.96,52.84 101.61,52.02 101.29,51.17 100.98,50.32 100.63,49.49 100.27,48.66 99.96,47.78 99.64,46.90 99.29,46.02 98.94,45.14 98.62,44.13 98.31,43.12 98.01,42.08 97.71,41.05 97.61,40.38 97.51,39.72 96.92,38.61 96.33,37.50 96.06,36.34 95.80,35.17 95.69,34.53 95.59,33.88 95.23,32.82 94.87,31.76 94.56,30.46 94.25,29.16 93.91,28.16 93.58,27.16 93.24,26.17 92.90,25.18 92.55,24.19 92.20,23.20 91.83,22.23 91.47,21.25 90.89,19.66 90.32,18.06 89.98,17.50 89.63,16.94 89.00,16.11 88.36,15.29 88.03,14.64 87.69,13.99 87.36,13.38 87.02,12.76 86.69,12.21 86.36,11.66 86.05,11.21 85.74,10.76 85.23,10.33 84.72,9.89 84.02,9.50 83.32,9.11 82.58,8.63 81.85,8.15 81.31,7.69 80.78,7.23 79.80,6.46 78.83,5.69 78.11,4.97 77.38,4.25 76.58,3.45 75.78,2.65 74.80,1.68 73.82,0.71 73.02,-0.10 72.22,-0.91 70.95,-1.72 69.68,-2.54 68.28,-3.22 66.87,-3.91 65.37,-4.63 63.86,-5.34 62.15,-6.12 60.44,-6.90 59.08,-7.40 57.72,-7.90 56.01,-8.27 54.29,-8.64 52.73,-9.01 51.17,-9.39 49.28,-9.42 47.39,-9.46 45.18,-9.54 42.98,-9.62 40.67,-9.80 38.36,-9.98 36.35,-9.94 34.35,-9.90 32.32,-9.81 30.30,-9.72 28.08,-9.48 25.86,-9.24 24.42,-9.12 22.98,-8.99 21.54,-8.62 20.11,-8.25 18.59,-7.83 17.07,-7.42 15.53,-6.81 14.00,-6.20 12.78,-5.71 11.55,-5.23 10.18,-4.41 8.82,-3.58 7.82,-2.94 6.81,-2.30 5.82,-1.67 4.83,-1.03 3.41,-0.26 1.98,0.50 1.30,0.72 0.62,0.94 0.50,1.00 0.38,1.06 0.25,1.09 0.11,1.12 -0.01,1.12 -0.15,1.12 -0.28,1.08 -0.41,1.05 -0.53,0.98 -0.65,0.92 -0.76,0.83 -0.86,0.73 -0.93,0.62 -1.01,0.51 -1.06,0.38 -1.10,0.25 -1.12,0.11 -1.13,-0.01 -1.11,-0.15 -1.09,-0.28 -1.04,-0.41 -0.99,-0.54 -0.91,-0.65 -0.83,-0.76 -0.73,-0.85 -0.62,-0.94 -0.62,-0.94 L -0.62,-0.94 Z"></path></g><g transform="translate(454.66668701171875 89.33334350585938) rotate(0 10.333343505859375 1)" stroke="none"><path fill="#1e1e1e" d="M 0,-1.22 Q 0,-1.22 0.83,-1.44 1.67,-1.66 2.98,-1.00 4.28,-0.33 5.49,0.47 6.69,1.29 7.84,2.25 8.98,3.22 9.96,3.95 10.95,4.68 11.70,5.15 12.46,5.63 13.07,6.00 13.68,6.37 12.95,6.47 12.22,6.57 12.74,5.83 13.26,5.10 13.79,4.28 14.32,3.46 14.70,2.79 15.08,2.12 15.76,0.23 16.44,-1.65 17.18,-3.18 17.92,-4.70 18.67,-4.62 19.42,-4.54 19.47,-4.60 19.51,-4.67 19.57,-4.72 19.62,-4.78 19.69,-4.82 19.76,-4.85 19.84,-4.88 19.91,-4.90 19.99,-4.90 20.07,-4.90 20.15,-4.88 20.23,-4.87 20.30,-4.83 20.37,-4.80 20.43,-4.75 20.49,-4.70 20.54,-4.63 20.58,-4.57 20.61,-4.50 20.65,-4.42 20.66,-4.34 20.67,-4.27 20.66,-4.19 20.65,-4.11 20.63,-4.03 20.60,-3.96 20.61,-3.98 20.62,-4.00 20.56,-3.90 20.51,-3.81 20.42,-3.75 20.34,-3.68 20.24,-3.64 20.14,-3.60 20.04,-3.60 19.93,-3.60 19.83,-3.63 19.73,-3.66 19.64,-3.72 19.55,-3.78 19.49,-3.86 19.43,-3.95 19.40,-4.05 19.36,-4.15 19.36,-4.26 19.37,-4.36 19.40,-4.46 19.44,-4.56 19.50,-4.65 19.57,-4.73 19.66,-4.79 19.75,-4.85 19.85,-4.87 19.95,-4.90 20.06,-4.89 20.16,-4.89 20.26,-4.85 20.36,-4.80 20.44,-4.73 20.52,-4.66 20.57,-4.57 20.63,-4.48 20.65,-4.38 20.67,-4.27 20.66,-4.17 20.64,-4.06 20.60,-3.97 20.55,-3.87 20.48,-3.79 20.40,-3.72 20.31,-3.67 20.21,-3.62 20.11,-3.61 20.00,-3.59 19.90,-3.61 19.79,-3.63 19.70,-3.68 19.61,-3.73 19.54,-3.81 19.46,-3.89 19.42,-3.98 19.38,-4.08 19.37,-4.19 19.36,-4.29 19.39,-4.41 19.42,-4.53 19.47,-4.60 19.51,-4.67 19.57,-4.72 19.62,-4.78 19.69,-4.82 19.76,-4.85 19.84,-4.88 19.91,-4.90 19.99,-4.90 20.07,-4.90 20.15,-4.88 20.23,-4.87 20.30,-4.83 20.37,-4.80 20.43,-4.75 20.49,-4.70 20.54,-4.63 20.58,-4.57 20.61,-4.50 20.65,-4.42 20.66,-4.34 20.67,-4.27 20.66,-4.19 20.65,-4.11 20.63,-4.03 20.60,-3.96 20.97,-3.50 21.33,-3.04 20.66,-1.69 20.00,-0.34 19.19,1.82 18.37,3.99 17.94,4.76 17.50,5.52 17.01,6.28 16.52,7.04 15.95,7.86 15.38,8.68 14.80,9.13 14.23,9.57 13.19,9.66 12.14,9.74 11.29,9.28 10.44,8.82 9.56,8.25 8.67,7.69 7.60,6.86 6.53,6.04 5.55,5.16 4.57,4.28 3.47,3.45 2.38,2.63 1.88,2.15 1.38,1.66 0.69,1.44 0,1.22 -0.14,1.20 -0.29,1.18 -0.42,1.13 -0.56,1.08 -0.68,0.99 -0.80,0.91 -0.90,0.80 -1.00,0.69 -1.07,0.56 -1.14,0.43 -1.17,0.29 -1.21,0.14 -1.21,-0.00 -1.21,-0.14 -1.17,-0.29 -1.14,-0.43 -1.07,-0.56 -1.00,-0.69 -0.90,-0.80 -0.80,-0.91 -0.68,-0.99 -0.56,-1.08 -0.42,-1.13 -0.29,-1.18 -0.14,-1.20 0.00,-1.22 0.00,-1.22 L 0,-1.22 Z"></path></g><g transform="translate(210.66668701171875 65.33331298828125) rotate(0 35.666656494140625 3.6666717529296875)" stroke="none"><path fill="#e03131" d="M 0.34,-1.19 Q 0.34,-1.19 1.73,-1.00 3.13,-0.80 4.97,-0.50 6.81,-0.19 10.61,0.11 14.41,0.42 18.51,0.56 22.60,0.70 27.03,0.76 31.45,0.82 37.60,1.24 43.75,1.65 48.91,2.40 54.06,3.16 58.12,3.71 62.17,4.25 65.95,5.34 69.74,6.42 69.84,6.46 69.94,6.49 70.02,6.55 70.11,6.61 70.17,6.70 70.23,6.79 70.26,6.89 70.29,6.99 70.28,7.10 70.28,7.21 70.24,7.30 70.20,7.40 70.14,7.49 70.07,7.57 69.98,7.62 69.89,7.68 69.78,7.70 69.68,7.73 69.57,7.72 69.47,7.71 69.37,7.66 69.28,7.62 69.20,7.55 69.12,7.48 69.07,7.38 69.02,7.29 69.00,7.18 68.98,7.08 69.00,6.97 69.01,6.87 69.06,6.77 69.11,6.68 69.19,6.61 69.26,6.53 69.36,6.49 69.45,6.44 69.56,6.43 69.67,6.42 69.77,6.44 69.87,6.46 69.96,6.51 70.06,6.57 70.13,6.65 70.20,6.73 70.24,6.82 70.28,6.92 70.28,7.03 70.29,7.14 70.26,7.24 70.24,7.34 70.18,7.43 70.12,7.52 70.04,7.58 69.95,7.65 69.85,7.68 69.75,7.72 69.64,7.72 69.54,7.72 69.54,7.72 69.54,7.72 65.65,7.64 61.76,7.56 57.66,7.09 53.55,6.62 48.54,5.87 43.52,5.13 37.46,4.72 31.40,4.32 26.94,4.25 22.48,4.19 18.29,4.04 14.11,3.89 10.15,3.52 6.19,3.14 4.21,2.74 2.23,2.34 0.94,1.76 -0.34,1.19 -0.47,1.13 -0.61,1.07 -0.73,0.98 -0.85,0.90 -0.95,0.78 -1.04,0.66 -1.11,0.53 -1.17,0.39 -1.20,0.25 -1.23,0.10 -1.23,-0.04 -1.22,-0.19 -1.18,-0.33 -1.14,-0.48 -1.07,-0.61 -0.99,-0.74 -0.89,-0.85 -0.79,-0.96 -0.66,-1.04 -0.53,-1.12 -0.39,-1.16 -0.25,-1.21 -0.10,-1.23 0.04,-1.24 0.19,-1.21 0.34,-1.19 0.34,-1.19 L 0.34,-1.19 Z"></path></g><g transform="translate(258 42) rotate(0 19.000030517578125 27)" stroke="none"><path fill="#e03131" d="M 1.14,-0.76 Q 1.14,-0.76 2.05,0.28 2.95,1.34 3.74,2.06 4.53,2.79 7.29,4.58 10.05,6.37 12.97,8.12 15.88,9.86 18.81,11.35 21.73,12.84 24.36,14.26 26.99,15.68 29.28,17.07 31.58,18.46 33.39,19.86 35.20,21.27 36.41,22.50 37.62,23.73 38.14,24.48 38.67,25.23 37.47,25.40 36.28,25.57 36.32,25.18 36.36,24.80 36.49,24.63 36.62,24.45 36.79,24.31 36.96,24.17 37.16,24.07 37.35,23.98 37.57,23.93 37.78,23.89 38.00,23.90 38.22,23.90 38.44,23.96 38.65,24.02 38.84,24.13 39.03,24.24 39.19,24.39 39.35,24.54 39.47,24.73 39.59,24.91 39.66,25.12 39.73,25.33 39.75,25.55 39.77,25.77 39.73,25.99 39.70,26.20 39.61,26.41 39.53,26.61 38.91,27.17 38.30,27.72 37.21,28.59 36.12,29.46 32.97,31.97 29.83,34.48 26.01,37.47 22.18,40.46 17.92,44.20 13.67,47.93 11.04,50.11 8.42,52.28 6.40,52.85 4.38,53.42 4.29,53.46 4.19,53.50 4.09,53.51 3.98,53.52 3.88,53.50 3.77,53.48 3.68,53.42 3.59,53.36 3.52,53.28 3.46,53.20 3.42,53.10 3.38,53.00 3.38,52.90 3.37,52.79 3.40,52.69 3.43,52.59 3.49,52.50 3.55,52.41 3.64,52.35 3.72,52.29 3.82,52.25 3.92,52.22 4.03,52.22 4.14,52.22 4.24,52.26 4.34,52.29 4.42,52.36 4.50,52.42 4.56,52.51 4.62,52.60 4.65,52.70 4.68,52.81 4.67,52.91 4.66,53.02 4.62,53.12 4.58,53.21 4.51,53.29 4.44,53.37 4.35,53.43 4.26,53.48 4.15,53.50 4.05,53.53 3.94,53.51 3.84,53.50 3.74,53.45 3.65,53.41 3.57,53.33 3.50,53.26 3.45,53.17 3.40,53.07 3.38,52.97 3.37,52.86 3.38,52.76 3.40,52.65 3.45,52.56 3.50,52.47 3.58,52.39 3.66,52.32 3.66,52.32 3.66,52.32 4.79,50.81 5.92,49.29 8.50,47.12 11.07,44.95 15.44,41.18 19.81,37.41 23.65,34.46 27.49,31.50 30.66,29.04 33.83,26.58 35.10,25.69 36.36,24.80 36.49,24.63 36.62,24.45 36.79,24.31 36.96,24.17 37.16,24.07 37.35,23.98 37.57,23.93 37.78,23.89 38.00,23.90 38.22,23.90 38.44,23.96 38.65,24.02 38.84,24.13 39.03,24.24 39.19,24.39 39.35,24.54 39.47,24.73 39.59,24.91 39.66,25.12 39.73,25.33 39.75,25.55 39.77,25.77 39.73,25.99 39.70,26.20 39.61,26.41 39.53,26.61 39.32,27.04 39.11,27.47 37.52,27.45 35.92,27.42 35.49,26.81 35.07,26.20 34.04,25.14 33.02,24.07 31.38,22.78 29.74,21.49 27.52,20.15 25.30,18.80 22.71,17.40 20.12,16.00 17.09,14.45 14.06,12.90 11.08,11.11 8.10,9.32 5.12,7.31 2.13,5.29 1.12,4.27 0.10,3.25 -0.51,2.01 -1.14,0.76 -1.21,0.61 -1.29,0.46 -1.33,0.30 -1.36,0.14 -1.36,-0.02 -1.36,-0.18 -1.31,-0.34 -1.27,-0.50 -1.19,-0.65 -1.11,-0.79 -1.00,-0.92 -0.89,-1.04 -0.75,-1.13 -0.61,-1.22 -0.46,-1.28 -0.30,-1.33 -0.14,-1.35 0.02,-1.37 0.18,-1.35 0.35,-1.32 0.50,-1.26 0.65,-1.20 0.79,-1.11 0.92,-1.01 1.03,-0.88 1.14,-0.76 1.14,-0.76 L 1.14,-0.76 Z"></path></g></svg>