<?xml version="1.0" encoding="UTF-8" standalone="no"?>
<!DOCTYPE svg PUBLIC "-//W3C//DTD SVG 1.1//EN"
 "http://www.w3.org/Graphics/SVG/1.1/DTD/svg11.dtd">
<!-- Generated by graphviz version 10.0.1 (0)
 -->
<!-- Title: main Pages: 1 -->
<svg width="3835pt" height="1322pt"
 viewBox="0.00 0.00 3834.99 1322.38" xmlns="http://www.w3.org/2000/svg" xmlns:xlink="http://www.w3.org/1999/xlink">
<g id="graph0" class="graph" transform="scale(1 1) rotate(0) translate(4 1318.38)">
<title>main</title>
<polygon fill="white" stroke="none" points="-4,4 -4,-1318.38 3830.99,-1318.38 3830.99,4 -4,4"/>
<!-- Abu Dhabi -->
<g id="node1" class="node">
<title>Abu Dhabi</title>
<text text-anchor="middle" x="2485.17" y="-899.06" font-family="Times,serif" font-size="14.00">Abu Dhabi</text>
</g>
<!-- Lusail -->
<g id="node14" class="node">
<title>Lusail</title>
<text text-anchor="middle" x="2439.86" y="-913.74" font-family="Times,serif" font-size="14.00">Lusail</text>
</g>
<!-- Abu Dhabi&#45;&gt;Lusail -->
<g id="edge6" class="edge">
<title>Abu Dhabi&#45;&gt;Lusail</title>
<path fill="none" stroke="red" d="M2462.25,-912.29C2462.21,-912.3 2462.16,-912.32 2462.12,-912.33"/>
<polygon fill="red" stroke="red" points="2471.86,-905.49 2463.43,-911.91 2474.02,-912.15 2471.86,-905.49"/>
</g>
<!-- Austin -->
<g id="node2" class="node">
<title>Austin</title>
<text text-anchor="middle" x="293" y="-980.63" font-family="Times,serif" font-size="14.00">Austin</text>
</g>
<!-- Mexico City -->
<g id="node17" class="node">
<title>Mexico City</title>
<text text-anchor="middle" x="272.01" y="-826.07" font-family="Times,serif" font-size="14.00">Mexico City</text>
</g>
<!-- Austin&#45;&gt;Mexico City -->
<g id="edge31" class="edge">
<title>Austin&#45;&gt;Mexico City</title>
<path fill="none" stroke="red" d="M291.99,-978.97C288.84,-955.77 279.14,-884.34 274.51,-850.29"/>
<polygon fill="red" stroke="red" points="278.03,-850.19 273.22,-840.75 271.09,-851.13 278.03,-850.19"/>
</g>
<!-- Baku -->
<g id="node3" class="node">
<title>Baku</title>
<text text-anchor="middle" x="2416.64" y="-1128" font-family="Times,serif" font-size="14.00">Baku</text>
</g>
<!-- Sochi -->
<g id="node31" class="node">
<title>Sochi</title>
<text text-anchor="middle" x="2274.34" y="-1171.74" font-family="Times,serif" font-size="14.00">Sochi</text>
</g>
<!-- Baku&#45;&gt;Sochi -->
<g id="edge10" class="edge">
<title>Baku&#45;&gt;Sochi</title>
<path fill="none" stroke="red" d="M2398.91,-1139.25C2376.02,-1146.28 2335.75,-1158.66 2307.2,-1167.44"/>
<polygon fill="red" stroke="red" points="2306.49,-1164 2297.96,-1170.28 2308.55,-1170.69 2306.49,-1164"/>
</g>
<!-- Barcelona -->
<g id="node4" class="node">
<title>Barcelona</title>
<text text-anchor="middle" x="1731.45" y="-1145.28" font-family="Times,serif" font-size="14.00">Barcelona</text>
</g>
<!-- Portimão -->
<g id="node23" class="node">
<title>Portimão</title>
<text text-anchor="middle" x="1574.68" y="-1082.82" font-family="Times,serif" font-size="14.00">Portimão</text>
</g>
<!-- Barcelona&#45;&gt;Portimão -->
<g id="edge26" class="edge">
<title>Barcelona&#45;&gt;Portimão</title>
<path fill="none" stroke="red" d="M1712.85,-1143.67C1685.86,-1132.91 1635.59,-1112.89 1603.7,-1100.18"/>
<polygon fill="red" stroke="red" points="1605.24,-1097.03 1594.66,-1096.58 1602.65,-1103.54 1605.24,-1097.03"/>
</g>
<!-- Budapest -->
<g id="node5" class="node">
<title>Budapest</title>
<text text-anchor="middle" x="1976.12" y="-1231.88" font-family="Times,serif" font-size="14.00">Budapest</text>
</g>
<!-- Spielberg -->
<g id="node33" class="node">
<title>Spielberg</title>
<text text-anchor="middle" x="1911.48" y="-1226.69" font-family="Times,serif" font-size="14.00">Spielberg</text>
</g>
<!-- Budapest&#45;&gt;Spielberg -->
<g id="edge13" class="edge">
<title>Budapest&#45;&gt;Spielberg</title>
<path fill="none" stroke="red" d="M1940.4,-1234.81C1940.34,-1234.81 1940.28,-1234.8 1940.22,-1234.8"/>
<polygon fill="red" stroke="red" points="1951.8,-1232.22 1941.55,-1234.91 1951.24,-1239.2 1951.8,-1232.22"/>
</g>
<!-- Estoril -->
<g id="node6" class="node">
<title>Estoril</title>
<text text-anchor="middle" x="1563.65" y="-1104.7" font-family="Times,serif" font-size="14.00">Estoril</text>
</g>
<!-- Montreal -->
<g id="node20" class="node">
<title>Montreal</title>
<text text-anchor="middle" x="640.16" y="-1201.97" font-family="Times,serif" font-size="14.00">Montreal</text>
</g>
<!-- Estoril&#45;&gt;Montreal -->
<g id="edge28" class="edge">
<title>Estoril&#45;&gt;Montreal</title>
<path fill="none" stroke="red" d="M1532.39,-1113.79C1395.86,-1128.17 851.28,-1185.53 687.19,-1202.82"/>
<polygon fill="red" stroke="red" points="687.13,-1199.3 677.55,-1203.83 687.86,-1206.26 687.13,-1199.3"/>
</g>
<!-- Hockenheim -->
<g id="node7" class="node">
<title>Hockenheim</title>
<text text-anchor="middle" x="1822.36" y="-1257.03" font-family="Times,serif" font-size="14.00">Hockenheim</text>
</g>
<!-- Nürburg -->
<g id="node22" class="node">
<title>Nürburg</title>
<text text-anchor="middle" x="1798.9" y="-1271.49" font-family="Times,serif" font-size="14.00">Nürburg</text>
</g>
<!-- Hockenheim&#45;&gt;Nürburg -->
<g id="edge18" class="edge">
<title>Hockenheim&#45;&gt;Nürburg</title>
<path fill="none" stroke="red" d="M1810.35,-1270.23C1810.31,-1270.26 1810.26,-1270.29 1810.22,-1270.32"/>
<polygon fill="red" stroke="red" points="1818.05,-1261.38 1811.37,-1269.6 1821.72,-1267.33 1818.05,-1261.38"/>
</g>
<!-- Imola -->
<g id="node8" class="node">
<title>Imola</title>
<text text-anchor="middle" x="1867.59" y="-1185.19" font-family="Times,serif" font-size="14.00">Imola</text>
</g>
<!-- Scarperia e San Piero -->
<g id="node26" class="node">
<title>Scarperia e San Piero</title>
<text text-anchor="middle" x="1862.68" y="-1180.25" font-family="Times,serif" font-size="14.00">Scarperia e San Piero</text>
</g>
<!-- Imola&#45;&gt;Scarperia e San Piero -->
<g id="edge15" class="edge">
<title>Imola&#45;&gt;Scarperia e San Piero</title>
<path fill="none" stroke="red" d="M1862.73,-1186.11C1862.72,-1186.1 1862.71,-1186.09 1862.71,-1186.09"/>
<polygon fill="red" stroke="red" points="1873.31,-1191.77 1863.76,-1187.14 1868.33,-1196.72 1873.31,-1191.77"/>
</g>
<!-- Istanbul -->
<g id="node9" class="node">
<title>Istanbul</title>
<text text-anchor="middle" x="2122.45" y="-1136.48" font-family="Times,serif" font-size="14.00">Istanbul</text>
</g>
<!-- Istanbul&#45;&gt;Budapest -->
<g id="edge12" class="edge">
<title>Istanbul&#45;&gt;Budapest</title>
<path fill="none" stroke="red" d="M2110.97,-1149.76C2086.39,-1165.79 2028.39,-1203.6 1997.06,-1224.02"/>
<polygon fill="red" stroke="red" points="1995.28,-1221.01 1988.82,-1229.4 1999.1,-1226.87 1995.28,-1221.01"/>
</g>
<!-- Jacarepaguá -->
<g id="node10" class="node">
<title>Jacarepaguá</title>
<text text-anchor="middle" x="1074.03" y="-215.83" font-family="Times,serif" font-size="14.00">Jacarepaguá</text>
</g>
<!-- Jeddah -->
<g id="node11" class="node">
<title>Jeddah</title>
<text text-anchor="middle" x="2262.02" y="-858.18" font-family="Times,serif" font-size="14.00">Jeddah</text>
</g>
<!-- Jeddah&#45;&gt;Baku -->
<g id="edge9" class="edge">
<title>Jeddah&#45;&gt;Baku</title>
<path fill="none" stroke="red" d="M2266.31,-871.48C2287.04,-907.64 2376.87,-1064.39 2406.86,-1116.72"/>
<polygon fill="red" stroke="red" points="2403.68,-1118.21 2411.69,-1125.15 2409.75,-1114.73 2403.68,-1118.21"/>
</g>
<!-- Las Vegas -->
<g id="node12" class="node">
<title>Las Vegas</title>
<text text-anchor="middle" x="40.5" y="-1066.75" font-family="Times,serif" font-size="14.00">Las Vegas</text>
</g>
<!-- Las Vegas&#45;&gt;Austin -->
<g id="edge30" class="edge">
<title>Las Vegas&#45;&gt;Austin</title>
<path fill="none" stroke="red" d="M62.47,-1065.06C107.07,-1049.85 208.42,-1015.28 260.62,-997.47"/>
<polygon fill="red" stroke="red" points="261.5,-1000.87 269.84,-994.33 259.24,-994.24 261.5,-1000.87"/>
</g>
<!-- Le Castellet -->
<g id="node13" class="node">
<title>Le Castellet</title>
<text text-anchor="middle" x="1782.31" y="-1169.53" font-family="Times,serif" font-size="14.00">Le Castellet</text>
</g>
<!-- Le Castellet&#45;&gt;Barcelona -->
<g id="edge25" class="edge">
<title>Le Castellet&#45;&gt;Barcelona</title>
<path fill="none" stroke="red" d="M1766.77,-1167.92C1763.72,-1166.46 1760.43,-1164.9 1757.15,-1163.33"/>
<polygon fill="red" stroke="red" points="1758.79,-1160.23 1748.26,-1159.09 1755.78,-1166.55 1758.79,-1160.23"/>
</g>
<!-- Sakhir -->
<g id="node24" class="node">
<title>Sakhir</title>
<text text-anchor="middle" x="2426.29" y="-921.53" font-family="Times,serif" font-size="14.00">Sakhir</text>
</g>
<!-- Lusail&#45;&gt;Sakhir -->
<g id="edge7" class="edge">
<title>Lusail&#45;&gt;Sakhir</title>
<path fill="none" stroke="red" d="M2426.87,-926.99C2426.78,-927.05 2426.7,-927.09 2426.63,-927.14"/>
<polygon fill="red" stroke="red" points="2434.69,-918.47 2427.76,-926.49 2438.17,-924.54 2434.69,-918.47"/>
</g>
<!-- Magny&#45;Cours -->
<g id="node15" class="node">
<title>Magny&#45;Cours</title>
<text text-anchor="middle" x="1744.48" y="-1221.51" font-family="Times,serif" font-size="14.00">Magny&#45;Cours</text>
</g>
<!-- Monte Carlo -->
<g id="node19" class="node">
<title>Monte Carlo</title>
<text text-anchor="middle" x="1805.9" y="-1176.5" font-family="Times,serif" font-size="14.00">Monte Carlo</text>
</g>
<!-- Magny&#45;Cours&#45;&gt;Monte Carlo -->
<g id="edge23" class="edge">
<title>Magny&#45;Cours&#45;&gt;Monte Carlo</title>
<path fill="none" stroke="red" d="M1754.62,-1219.88C1763.39,-1213.45 1776.29,-1204 1786.96,-1196.18"/>
<polygon fill="red" stroke="red" points="1788.73,-1199.22 1794.72,-1190.48 1784.59,-1193.57 1788.73,-1199.22"/>
</g>
<!-- Melbourne -->
<g id="node16" class="node">
<title>Melbourne</title>
<text text-anchor="middle" x="3786.49" y="-1.7" font-family="Times,serif" font-size="14.00">Melbourne</text>
</g>
<!-- Suzuka -->
<g id="node34" class="node">
<title>Suzuka</title>
<text text-anchor="middle" x="3665.01" y="-1048.44" font-family="Times,serif" font-size="14.00">Suzuka</text>
</g>
<!-- Melbourne&#45;&gt;Suzuka -->
<g id="edge1" class="edge">
<title>Melbourne&#45;&gt;Suzuka</title>
<path fill="none" stroke="red" d="M3785.65,-14.74C3775.81,-99.53 3682.62,-902.49 3667.17,-1035.59"/>
<polygon fill="red" stroke="red" points="3663.71,-1035.03 3666.04,-1045.37 3670.67,-1035.84 3663.71,-1035.03"/>
</g>
<!-- Miami -->
<g id="node18" class="node">
<title>Miami</title>
<text text-anchor="middle" x="543.48" y="-920.48" font-family="Times,serif" font-size="14.00">Miami</text>
</g>
<!-- Mexico City&#45;&gt;Miami -->
<g id="edge32" class="edge">
<title>Mexico City&#45;&gt;Miami</title>
<path fill="none" stroke="red" d="M293.31,-839.28C340.79,-855.79 455.5,-895.68 511.56,-915.18"/>
<polygon fill="red" stroke="red" points="510.25,-918.43 520.85,-918.41 512.55,-911.82 510.25,-918.43"/>
</g>
<!-- Sao Paulo -->
<g id="node25" class="node">
<title>Sao Paulo</title>
<text text-anchor="middle" x="1026.47" y="-205.37" font-family="Times,serif" font-size="14.00">Sao Paulo</text>
</g>
<!-- Miami&#45;&gt;Sao Paulo -->
<g id="edge33" class="edge">
<title>Miami&#45;&gt;Sao Paulo</title>
<path fill="none" stroke="red" d="M548.26,-919.2C593.59,-852.09 947.47,-328.13 1015.26,-227.76"/>
<polygon fill="red" stroke="red" points="1018.1,-229.81 1020.8,-219.56 1012.3,-225.89 1018.1,-229.81"/>
</g>
<!-- Monte Carlo&#45;&gt;Le Castellet -->
<g id="edge24" class="edge">
<title>Monte Carlo&#45;&gt;Le Castellet</title>
<path fill="none" stroke="red" d="M1782.38,-1175.35C1782.37,-1175.34 1782.36,-1175.34 1782.35,-1175.34"/>
<polygon fill="red" stroke="red" points="1794.37,-1175.27 1783.78,-1175.76 1792.37,-1181.99 1794.37,-1175.27"/>
</g>
<!-- Montreal&#45;&gt;Las Vegas -->
<g id="edge29" class="edge">
<title>Montreal&#45;&gt;Las Vegas</title>
<path fill="none" stroke="red" d="M607.06,-1200.31C505.7,-1177.45 199.47,-1108.4 84.63,-1082.5"/>
<polygon fill="red" stroke="red" points="85.49,-1079.11 74.97,-1080.33 83.95,-1085.94 85.49,-1079.11"/>
</g>
<!-- Monza -->
<g id="node21" class="node">
<title>Monza</title>
<text text-anchor="middle" x="1832.7" y="-1203.62" font-family="Times,serif" font-size="14.00">Monza</text>
</g>
<!-- Monza&#45;&gt;Hockenheim -->
<g id="edge17" class="edge">
<title>Monza&#45;&gt;Hockenheim</title>
<path fill="none" stroke="red" d="M1831.26,-1216.85C1829.88,-1223.95 1827.76,-1234.93 1825.93,-1244.38"/>
<polygon fill="red" stroke="red" points="1822.53,-1243.5 1824.07,-1253.99 1829.41,-1244.83 1822.53,-1243.5"/>
</g>
<!-- Spa Francorchamps -->
<g id="node32" class="node">
<title>Spa Francorchamps</title>
<text text-anchor="middle" x="1784.9" y="-1272.96" font-family="Times,serif" font-size="14.00">Spa Francorchamps</text>
</g>
<!-- Nürburg&#45;&gt;Spa Francorchamps -->
<g id="edge19" class="edge">
<title>Nürburg&#45;&gt;Spa Francorchamps</title>
<path fill="none" stroke="red" d="M1785.06,-1278.74C1785.03,-1278.75 1785.01,-1278.75 1784.99,-1278.75"/>
<polygon fill="red" stroke="red" points="1796.02,-1274.05 1786.45,-1278.6 1796.76,-1281.02 1796.02,-1274.05"/>
</g>
<!-- Portimão&#45;&gt;Estoril -->
<g id="edge27" class="edge">
<title>Portimão&#45;&gt;Estoril</title>
<path fill="none" stroke="red" d="M1570.94,-1096.03C1570.87,-1096.17 1570.8,-1096.31 1570.72,-1096.46"/>
<polygon fill="red" stroke="red" points="1569.44,-1091.24 1568.06,-1101.75 1575.69,-1094.39 1569.44,-1091.24"/>
</g>
<!-- Sakhir&#45;&gt;Jeddah -->
<g id="edge8" class="edge">
<title>Sakhir&#45;&gt;Jeddah</title>
<path fill="none" stroke="red" d="M2407.13,-919.94C2378.76,-909 2325.36,-888.41 2291.85,-875.49"/>
<polygon fill="red" stroke="red" points="2293.32,-872.3 2282.73,-871.97 2290.8,-878.83 2293.32,-872.3"/>
</g>
<!-- Sao Paulo&#45;&gt;Jacarepaguá -->
<g id="edge34" class="edge">
<title>Sao Paulo&#45;&gt;Jacarepaguá</title>
<path fill="none" stroke="red" d="M1060.53,-218.66C1060.59,-218.67 1060.65,-218.69 1060.71,-218.7"/>
<polygon fill="red" stroke="red" points="1048.89,-219.68 1059.41,-218.41 1050.39,-212.84 1048.89,-219.68"/>
</g>
<!-- Scarperia e San Piero&#45;&gt;Monza -->
<g id="edge16" class="edge">
<title>Scarperia e San Piero&#45;&gt;Monza</title>
<path fill="none" stroke="red" d="M1853.19,-1193.45C1852.41,-1194.06 1851.61,-1194.68 1850.79,-1195.32"/>
<polygon fill="red" stroke="red" points="1848.95,-1192.32 1843.21,-1201.23 1853.25,-1197.84 1848.95,-1192.32"/>
</g>
<!-- Sepang -->
<g id="node27" class="node">
<title>Sepang</title>
<text text-anchor="middle" x="3163.95" y="-586.44" font-family="Times,serif" font-size="14.00">Sepang</text>
</g>
<!-- Sepang&#45;&gt;Abu Dhabi -->
<g id="edge5" class="edge">
<title>Sepang&#45;&gt;Abu Dhabi</title>
<path fill="none" stroke="red" d="M3147.84,-599.66C3058.55,-640.78 2624.41,-840.74 2511.86,-892.57"/>
<polygon fill="red" stroke="red" points="2510.43,-889.38 2502.81,-896.74 2513.36,-895.74 2510.43,-889.38"/>
</g>
<!-- Shanghai -->
<g id="node28" class="node">
<title>Shanghai</title>
<text text-anchor="middle" x="3444.5" y="-997.98" font-family="Times,serif" font-size="14.00">Shanghai</text>
</g>
<!-- Singapore -->
<g id="node30" class="node">
<title>Singapore</title>
<text text-anchor="middle" x="3194.49" y="-565.27" font-family="Times,serif" font-size="14.00">Singapore</text>
</g>
<!-- Shanghai&#45;&gt;Singapore -->
<g id="edge3" class="edge">
<title>Shanghai&#45;&gt;Singapore</title>
<path fill="none" stroke="red" d="M3440.37,-996.63C3412.11,-947.71 3247.1,-662.13 3204.51,-588.42"/>
<polygon fill="red" stroke="red" points="3207.56,-586.7 3199.53,-579.79 3201.5,-590.2 3207.56,-586.7"/>
</g>
<!-- Silverstone -->
<g id="node29" class="node">
<title>Silverstone</title>
<text text-anchor="middle" x="1684.27" y="-1296.52" font-family="Times,serif" font-size="14.00">Silverstone</text>
</g>
<!-- Silverstone&#45;&gt;Magny&#45;Cours -->
<g id="edge22" class="edge">
<title>Silverstone&#45;&gt;Magny&#45;Cours</title>
<path fill="none" stroke="red" d="M1690.27,-1294.85C1699.82,-1282.95 1718.74,-1259.38 1731.5,-1243.48"/>
<polygon fill="red" stroke="red" points="1734.03,-1245.92 1737.56,-1235.93 1728.58,-1241.53 1734.03,-1245.92"/>
</g>
<!-- Singapore&#45;&gt;Sepang -->
<g id="edge4" class="edge">
<title>Singapore&#45;&gt;Sepang</title>
<path fill="none" stroke="red" d="M3183.81,-578.48C3183.71,-578.54 3183.62,-578.61 3183.52,-578.67"/>
<polygon fill="red" stroke="red" points="3181.94,-575.51 3175.71,-584.09 3185.92,-581.27 3181.94,-575.51"/>
</g>
<!-- Sochi&#45;&gt;Istanbul -->
<g id="edge11" class="edge">
<title>Sochi&#45;&gt;Istanbul</title>
<path fill="none" stroke="red" d="M2251.93,-1172.34C2229.3,-1167.09 2193.77,-1158.84 2165.65,-1152.31"/>
<polygon fill="red" stroke="red" points="2166.51,-1148.91 2155.98,-1150.06 2164.93,-1155.73 2166.51,-1148.91"/>
</g>
<!-- Zandvoort -->
<g id="node35" class="node">
<title>Zandvoort</title>
<text text-anchor="middle" x="1764.31" y="-1301.08" font-family="Times,serif" font-size="14.00">Zandvoort</text>
</g>
<!-- Spa Francorchamps&#45;&gt;Zandvoort -->
<g id="edge20" class="edge">
<title>Spa Francorchamps&#45;&gt;Zandvoort</title>
<path fill="none" stroke="red" d="M1779.49,-1286.15C1778.44,-1287.58 1777.31,-1289.13 1776.14,-1290.72"/>
<polygon fill="red" stroke="red" points="1773.59,-1288.28 1770.51,-1298.42 1779.24,-1292.42 1773.59,-1288.28"/>
</g>
<!-- Spielberg&#45;&gt;Imola -->
<g id="edge14" class="edge">
<title>Spielberg&#45;&gt;Imola</title>
<path fill="none" stroke="red" d="M1903.83,-1225.26C1898.24,-1219.97 1890.45,-1212.61 1883.52,-1206.06"/>
<polygon fill="red" stroke="red" points="1886.21,-1203.79 1876.54,-1199.46 1881.4,-1208.87 1886.21,-1203.79"/>
</g>
<!-- Suzuka&#45;&gt;Shanghai -->
<g id="edge2" class="edge">
<title>Suzuka&#45;&gt;Shanghai</title>
<path fill="none" stroke="red" d="M3638.41,-1048.15C3601.11,-1039.61 3532.81,-1023.99 3488.04,-1013.74"/>
<polygon fill="red" stroke="red" points="3488.92,-1010.35 3478.39,-1011.53 3487.36,-1017.18 3488.92,-1010.35"/>
</g>
<!-- Zandvoort&#45;&gt;Silverstone -->
<g id="edge21" class="edge">
<title>Zandvoort&#45;&gt;Silverstone</title>
<path fill="none" stroke="red" d="M1723.82,-1304.57C1723.75,-1304.57 1723.67,-1304.57 1723.59,-1304.56"/>
<polygon fill="red" stroke="red" points="1735.05,-1301.71 1724.87,-1304.64 1734.65,-1308.7 1735.05,-1301.71"/>
</g>
</g>
</svg>
